<?xml version="1.0" encoding="utf-8"?>
<!-- Generator: Adobe Illustrator 21.0.0, SVG Export Plug-In . SVG Version: 6.00 Build 0)  -->
<svg version="1.1" id="_x32_cf41747-0c0c-4d70-aad4-093c093adad4"
	 xmlns="http://www.w3.org/2000/svg" xmlns:xlink="http://www.w3.org/1999/xlink" x="0px" y="0px" viewBox="0 0 1022.8 813.2"
	 style="enable-background:new 0 0 1022.8 813.2;" xml:space="preserve">
<style type="text/css">
	.st0{opacity:0.1;fill:#E29E54;enable-background:new    ;}
	.st1{fill:#F9E3CF;}
	.st2{fill:#F4AA62;}
	.st3{fill:#4C5A6B;}
	.st4{fill:#EF8989;}
	.st5{fill:#BC503B;}
	.st6{fill:#DAAF8B;}
	.st7{fill:#F1DAD9;}
	.st8{fill:#625046;}
	.st9{fill:#1F2235;}
	.st10{opacity:0.21;}
	.st11{fill:#B56158;}
	.st12{fill:#E2B96D;}
	.st13{fill:#B58C50;}
	.st14{fill:#D17F69;}
	.st15{fill:#8C4E3F;}
	.st16{fill:#4B392B;}
	.st17{fill:#5D4E40;}
	.st18{fill:#365AAC;}
	.st19{fill:#354F7D;}
	.st20{opacity:0.1;fill:#6C63FF;enable-background:new    ;}
	.st21{fill:#ECE5DE;}
	.st22{fill:#C9984C;}
	.st23{fill:#505941;}
	.st24{fill:#4A3F47;}
	.st25{fill:#8F5E56;}
	.st26{fill:#D6B46A;}
	.st27{fill:#A87888;}
	.st28{fill:#E5C2A5;}
	.st29{fill:#633627;}
	.st30{fill:#6069BA;}
	.st31{fill:#6F7CCD;}
	.st32{opacity:0.38;}
	.st33{fill:#FBF7DD;}
	.st34{fill:#BBF098;}
	.st35{fill:#A67440;}
	.st36{fill:#303558;}
	.st37{fill:#C8974B;}
	.st38{fill:#FAB273;}
	.st39{fill:#3F4676;}
	.st40{fill:#8A6F40;}
	.st41{fill:#E0CA99;}
	.st42{fill:#F0FBB7;}
	.st43{opacity:0.47;}
	.st44{fill:#9E7D54;}
	.st45{fill:#8BBBDF;}
	.st46{fill:#CE8B9C;}
	.st47{fill:#48342F;}
	.st48{opacity:0.18;}
	.st49{fill:#AC6E80;}
	.st50{fill:url(#SVGID_1_);}
</style>
<path class="st0" d="M632.2,243.7c-59.9-2.1-116.9-21.4-171.3-42.5s-108.4-44.6-166.8-55.8c-37.6-7.2-80.6-8.2-110.8,11.9
	c-29.1,19.4-38.6,52.9-43.6,83.9c-3.8,23.4-6,47.9,4.4,69.8c7.2,15.2,20.1,28,29,42.5c31,50.6,9.1,113-24.5,162.4
	c-15.7,23.2-34,45.3-46.1,70c-12.1,24.7-17.8,53-7.1,78.1c10.5,25,35.6,43.7,62.8,56.9c55.2,26.8,120.2,34.4,183.7,38.8
	c140.4,9.6,281.6,5.4,422.4,1.3c52.1-1.5,104.4-3.1,155.7-11.2c28.5-4.5,57.9-11.6,78.5-28.7c26.2-21.8,32.7-58.6,15.2-85.9
	c-29.5-45.8-111-57.1-131.6-106.3c-11.3-27,0.3-57.2,16.8-82.2c35.4-53.8,94.6-101,97.8-162.5c2.1-42.2-26.4-84.5-70.4-104.5
	c-46.2-21-110.2-18.4-144.3,16.3C746.7,231.9,685,245.6,632.2,243.7z"/>
<g>
	<path class="st1" d="M86.7,386.6c-0.5,25.4,11.1,48.9,31.1,62.8c5,3.5,19.9,12.8,35.9,12.8c2.2,0,4.5-0.2,6.8-0.6
		c-1.9,13.6,1.7,28.6,10,42.2c13.8,22.6,32.9,38.6,52.3,43.9c9.2,2.5,18.3,3.7,27.1,3.7c15.8,0,30.3-4,41.3-11.7
		c9.7-6.8,18.2-23.9,17.6-35.4c0,0,0,0,0,0V468c0.1-0.6,0.1-1.3,0-1.9V295c0,0,0,0,0,0V145.5c0-0.1,0-0.2,0-0.2
		c0-13.7-8.3-27.3-21.6-34.9c-14.3-8.3-30.5-8.2-41.5-6.6c-18.2,2.5-34,10.4-44.6,22.2c-11,12.3-15.7,28.9-12.7,43.7
		c-21.9-3.5-45.1,3.5-62.5,19.5c-18.6,17.2-26.7,41.5-21.6,65c2.9,13.2,10.6,24.3,21,30.5c-3.7,5.4-6.2,11.9-7.3,19.1
		c-1.2,7.6-0.7,15.2,1.4,22.1C99.3,338.9,87.1,361.6,86.7,386.6z"/>
</g>
<g>
	<path class="st2" d="M543.9,362.8c2.1-6.8,2.6-14.5,1.4-22.1c-1.1-7.2-3.7-13.7-7.3-19.1c10.4-6.2,18.1-17.3,21-30.5
		c5.1-23.6-3-47.9-21.6-65c-17.3-16-40.6-23-62.5-19.5c3-14.7-1.7-31.4-12.7-43.7c-10.5-11.8-26.4-19.7-44.6-22.2
		c-11-1.5-27.2-1.6-41.5,6.6c-13.3,7.6-21.6,21.2-21.6,34.9c0,0.1,0,0.2,0,0.2v149.5c0,0,0,0,0,0v171c-0.1,0.6-0.1,1.3,0,1.9v36.2
		c0,0,0,0,0,0c-0.6,11.5,7.9,28.5,17.6,35.4c11,7.7,25.4,11.7,41.3,11.7c8.7,0,17.9-1.2,27.1-3.7c19.4-5.2,38.5-21.2,52.3-43.9
		c8.3-13.6,11.9-28.6,10-42.2c2.3,0.4,4.5,0.6,6.8,0.6c16,0,30.9-9.3,35.9-12.8c20-13.9,31.6-37.4,31.1-62.8
		C576,398.6,563.8,376,543.9,362.8z"/>
</g>
<g>
	<path class="st3" d="M326.5,487.9c0.1-0.7,0.2-1.3,0-2v-171c0,0,0,0,0,0V165.4c0-0.1,0-0.2,0-0.2c0-13.9-8.4-27.6-21.8-35.3
		c-14.4-8.3-30.7-8.2-41.8-6.7c-18.3,2.5-34.2,10.5-44.8,22.4c-10.9,12.2-15.7,28.7-12.9,43.5c-21.9-3.3-45,3.8-62.2,19.7
		c-18.7,17.3-26.9,41.7-21.7,65.4c2.9,13.2,10.5,24.3,20.9,30.6c-3.6,5.4-6,11.8-7.2,18.9c-1.2,7.5-0.7,15.1,1.3,22
		c-19.9,13.3-32,35.9-32.5,61c-0.5,25.5,11.2,49.1,31.3,63.1c5,3.5,20,12.9,36.1,12.9c2.1,0,4.2-0.2,6.3-0.5
		c-1.7,13.5,1.9,28.4,10.1,41.9c13.9,22.7,33.1,38.8,52.6,44.1c9.2,2.5,18.4,3.7,27.2,3.7c15.9,0,30.5-4,41.5-11.8
		c9.8-6.9,18.3-24.1,17.7-35.7c0,0,0,0,0,0V487.9z M303.5,552.4c-14.9,10.5-37.7,13-61,6.7c-17.3-4.7-34.4-19.2-47.1-40
		c-7.3-11.9-10.4-24.8-8.8-36.4c1.8-12.8,9.7-24,20.3-28.6c0,0,0.1,0,0.1-0.1c2.7,2,5.6,3.8,8.7,5.1c5.1,2.2,10.6,3.2,16.2,3.2
		c8.4,0,16.8-2.4,23.7-7.1c2.1-1.4,2.6-4.3,1.2-6.4c-1.4-2.1-4.3-2.6-6.4-1.2c-9,6.1-21.2,7.3-31.2,3c-10-4.2-17.6-13.9-19.4-24.6
		c-1.8-10.7,2.2-22.3,10.1-29.6c1.9-1.7,2-4.6,0.3-6.5c-1.7-1.9-4.6-2-6.5-0.3c-10.2,9.4-15.3,24.3-13,37.9c1.2,7.2,4.5,14,9.2,19.6
		c-9.2,5.1-16.5,14.1-20.2,24.7c-12.7,4.2-28.6-2.3-39.5-9.9c-17.6-12.2-27.8-32.9-27.3-55.4c0.4-21.4,10.5-40.8,27-52.5
		c4.7,8.4,12.1,14.7,20.7,17.4c3.2,1,6.6,1.5,9.9,1.5c7.1,0,14-2.3,19.4-6.8c2-1.6,2.2-4.5,0.6-6.5c-1.6-2-4.5-2.2-6.5-0.6
		c-5.4,4.4-13.5,5.8-20.6,3.6c-6.8-2.2-13-7.7-16.4-14.8c-3.2-6.6-4.3-14.8-3-23c1.5-9.3,5.9-17.4,12.1-22.2
		c6.7-5.3,15.9-6.7,22.8-3.4c2.3,1.1,5,0.1,6.1-2.2c1.1-2.3,0.1-5-2.2-6.1c-9.9-4.7-23-2.9-32.4,4.5c-0.8,0.6-1.5,1.3-2.2,2
		c-8.9-4.8-15.5-14.1-18-25.4c-4.5-20.8,2.4-41.5,19-56.7c15.9-14.6,37.3-20.8,57.1-16.9c-5,8.8-5.3,20.1-0.1,29
		c0.9,1.5,2.4,2.3,4,2.3c0.8,0,1.6-0.2,2.3-0.6c2.2-1.3,2.9-4.1,1.6-6.3c-4.4-7.4-2.9-17.9,3.3-23.8c6.2-5.9,16.7-7,23.9-2.3
		c2.1,1.4,5,0.8,6.3-1.4c1.4-2.1,0.8-5-1.4-6.3c-9.5-6.1-22.3-5.7-31.6,0.5c-3.2-12.5,0.7-27.1,10.3-37.8
		c9.2-10.3,23.1-17.1,39.2-19.4c9.7-1.3,23.8-1.5,36,5.6c10.8,6.2,17.7,17.7,17.2,28.6c0,0.2,0,0.3,0,0.5v62.3
		c-10.1,2.1-20.1,1.3-28.5-2.2c-9.7-4.2-17.3-12.5-19.8-21.7c-2.7-9.7,0.5-20.6,7.7-26.6c2-1.6,2.2-4.5,0.6-6.5
		c-1.6-2-4.5-2.2-6.5-0.6c-10,8.3-14.3,22.8-10.7,36.1c3.3,12,12.6,22.4,25,27.7c6.5,2.8,13.7,4.2,21.2,4.2c3.6,0,7.3-0.3,10.9-1
		V314c-4.8,10.7-18.1,18.9-29.7,17.9c-11.4-1-21.9-9.9-24.9-20.9c4.6-4.6,8.3-10.3,10.3-16.6c5-15.3,0.5-33-11.2-44.1
		c-1.8-1.7-4.7-1.7-6.5,0.2c-1.7,1.8-1.7,4.7,0.2,6.5c9,8.5,12.6,22.7,8.8,34.5c-3.9,11.8-15.2,21.1-27.5,22.7
		c-12.3,1.6-25.6-4.7-32.3-15.1c-1.4-2.1-4.2-2.8-6.3-1.4c-2.1,1.4-2.8,4.2-1.4,6.3c7.7,12.1,21.8,19.6,36.1,19.6
		c1.7,0,3.4-0.1,5.1-0.3c6.1-0.8,11.9-3,17.1-6.2c5.1,13,17.7,22.8,31.8,24c0.9,0.1,1.7,0.1,2.6,0.1c9.9,0,20.3-4.6,27.8-11.8v146.3
		c-11.2-8.4-26.9-11.1-39.9-5.9c-16.8,6.7-27.8,26-25,43.9c0.4,2.3,2.3,3.9,4.5,3.9c0.2,0,0.5,0,0.7-0.1c2.5-0.4,4.2-2.7,3.8-5.2
		c-2.2-13.8,6.3-28.8,19.3-34c12.5-5,28.2-0.6,36.5,10v35.8c0,0.1,0,0.1,0,0.2c0,0.1,0,0.1,0,0.2
		C317.9,532.1,311.4,546.7,303.5,552.4z"/>
	<path class="st3" d="M270.9,417.5c12.4,0,24.8-7.1,30.8-18c6.5-11.8,5.3-27.4-2.8-38.1c-1.5-2-4.4-2.4-6.4-0.8
		c-2,1.5-2.4,4.4-0.8,6.4c6,7.9,6.9,19.4,2.1,28.1c-4.8,8.7-15,14.1-24.9,13.2c-9.9-0.9-18.9-8.1-22-17.5c-0.8-2.4-3.4-3.7-5.8-2.9
		c-2.4,0.8-3.7,3.4-2.9,5.8c4.2,12.8,16.5,22.5,29.9,23.8C268.9,417.4,269.9,417.5,270.9,417.5z"/>
	<path class="st3" d="M527.5,345.5c2-6.8,2.5-14.4,1.3-22c-1.1-7.1-3.6-13.5-7.2-18.9c10.3-6.3,18-17.4,20.9-30.6
		c5.1-23.7-3-48.2-21.7-65.4c-17.3-15.9-40.4-23-62.2-19.7c2.8-14.7-2-31.2-12.9-43.5c-10.6-11.9-26.5-19.8-44.8-22.4
		c-11.1-1.5-27.4-1.6-41.8,6.7c-13.4,7.7-21.8,21.4-21.8,35.3c0,0.1,0,0.2,0,0.2v149.5c0,0,0,0,0,0v171c-0.2,0.7-0.1,1.4,0,2v36.2
		c0,0,0,0,0,0c-0.6,11.6,7.9,28.8,17.7,35.7c11,7.8,25.6,11.8,41.5,11.8c8.8,0,18-1.2,27.2-3.7c19.5-5.3,38.7-21.3,52.6-44.1
		c8.3-13.5,11.8-28.3,10.1-41.9c2.1,0.3,4.2,0.5,6.3,0.5c16.1,0,31.1-9.4,36.1-12.9c20.1-14,31.8-37.6,31.3-63.1
		C559.5,381.5,547.4,358.8,527.5,345.5z M523.5,462.1c-10.9,7.6-26.9,14-39.5,9.9c-3.7-10.6-11-19.6-20.2-24.7
		c4.7-5.6,8-12.4,9.2-19.6c2.3-13.7-2.8-28.6-13-37.9c-1.9-1.7-4.8-1.6-6.5,0.3c-1.7,1.9-1.6,4.8,0.3,6.5c8,7.3,12,18.9,10.1,29.6
		c-1.8,10.7-9.4,20.3-19.4,24.6c-10,4.2-22.2,3.1-31.2-3c-2.1-1.4-4.9-0.9-6.4,1.2c-1.4,2.1-0.9,4.9,1.2,6.4
		c6.9,4.7,15.3,7.1,23.7,7.1c5.6,0,11.1-1.1,16.2-3.2c3.1-1.3,6-3,8.7-5.1c0,0,0.1,0,0.1,0.1c10.6,4.5,18.6,15.8,20.3,28.6
		c1.6,11.6-1.5,24.5-8.8,36.4c-12.7,20.7-29.9,35.3-47.1,40c-23.3,6.3-46.1,3.8-61-6.7c-8-5.6-14.4-20.3-13.9-28c0-0.1,0-0.1,0-0.2
		c0-0.1,0-0.1,0-0.2v-35.8c8.3-10.6,24-15,36.5-10c13,5.2,21.5,20.1,19.3,34c-0.4,2.5,1.3,4.9,3.8,5.2c0.2,0,0.5,0.1,0.7,0.1
		c2.2,0,4.2-1.6,4.5-3.9c2.8-17.9-8.1-37.2-25-43.9c-13-5.2-28.7-2.5-39.9,5.9V329.4c7.5,7.1,17.9,11.8,27.8,11.8
		c0.9,0,1.8,0,2.6-0.1c14.1-1.2,26.7-10.9,31.8-24c5.2,3.3,11,5.4,17.1,6.2c1.7,0.2,3.4,0.3,5.1,0.3c14.3,0,28.4-7.5,36.1-19.6
		c1.4-2.1,0.7-5-1.4-6.3c-2.1-1.4-5-0.7-6.3,1.4c-6.7,10.5-19.9,16.7-32.3,15.1c-12.3-1.6-23.6-10.9-27.5-22.7
		c-3.9-11.8-0.2-26,8.8-34.5c1.8-1.7,1.9-4.6,0.2-6.5c-1.7-1.8-4.6-1.9-6.5-0.2c-11.7,11.1-16.2,28.8-11.2,44.1
		c2.1,6.3,5.7,12,10.3,16.6c-3,11.1-13.5,20-24.9,20.9c-11.5,1-24.9-7.2-29.7-17.9v-75.5c3.7,0.6,7.3,1,10.9,1
		c7.5,0,14.7-1.4,21.2-4.2c12.4-5.3,21.8-15.7,25-27.7c3.6-13.3-0.7-27.8-10.7-36.1c-2-1.6-4.8-1.3-6.5,0.6c-1.6,2-1.3,4.8,0.6,6.5
		c7.2,5.9,10.4,16.9,7.7,26.6c-2.5,9.2-10.1,17.5-19.8,21.7c-8.4,3.6-18.4,4.3-28.5,2.2v-62.3c0-0.2,0-0.3,0-0.5
		c-0.5-10.8,6.4-22.3,17.2-28.6c12.2-7,26.3-6.9,36-5.6c16.1,2.2,30.1,9.1,39.2,19.4c9.6,10.7,13.5,25.4,10.3,37.8
		c-9.3-6.2-22.1-6.6-31.6-0.5c-2.1,1.4-2.7,4.2-1.4,6.3c1.4,2.1,4.2,2.7,6.3,1.4c7.2-4.7,17.7-3.6,23.9,2.3
		c6.2,5.9,7.6,16.4,3.3,23.8c-1.3,2.2-0.6,5,1.6,6.3c0.7,0.4,1.5,0.6,2.3,0.6c1.6,0,3.1-0.8,4-2.3c5.2-8.8,4.9-20.2-0.1-29
		c19.8-3.9,41.2,2.3,57.1,16.9c16.6,15.3,23.5,35.9,19,56.7c-2.5,11.3-9.1,20.6-18,25.4c-0.7-0.7-1.5-1.3-2.2-2
		c-9.4-7.4-22.4-9.2-32.4-4.5c-2.3,1.1-3.3,3.8-2.2,6.1c1.1,2.3,3.8,3.3,6.1,2.2c6.9-3.2,16-1.9,22.8,3.4c6.2,4.9,10.6,13,12.1,22.2
		c1.3,8.2,0.2,16.4-3,23c-3.4,7.1-9.6,12.6-16.4,14.8c-7.1,2.3-15.2,0.9-20.6-3.6c-2-1.6-4.8-1.3-6.5,0.6c-1.6,2-1.3,4.8,0.6,6.5
		c5.3,4.4,12.3,6.8,19.4,6.8c3.3,0,6.6-0.5,9.9-1.5c8.6-2.8,16-9.1,20.7-17.4c16.5,11.7,26.6,31.1,27,52.5
		C551.3,429.1,541,449.9,523.5,462.1z"/>
	<path class="st3" d="M422.7,387.7c-2.4-0.8-5,0.5-5.8,2.9c-3.1,9.4-12.2,16.6-22,17.5c-9.9,0.9-20.1-4.5-24.9-13.2
		c-4.8-8.7-3.9-20.2,2.1-28.1c1.5-2,1.2-4.9-0.8-6.4c-2-1.5-4.9-1.2-6.4,0.8c-8.2,10.7-9.3,26.3-2.8,38.1c6,10.9,18.4,18,30.8,18
		c1,0,2,0,3-0.1c13.4-1.3,25.7-11,29.9-23.8C426.4,391.1,425.1,388.5,422.7,387.7z"/>
</g>
<g>
	<path class="st4" d="M694.8,584.8c0.4-0.3,5.7-154.4,58.7-176.8c44.5-18.8,107.6,8.7,107.6,8.7s36.5,0.8,36.5,168.1L694.8,584.8z"
		/>
	<g>
		<path class="st5" d="M732.8,271c-5.9,10.9-7.6,23.9-4.8,36c1.6,6.6,4.4,13.9,1.2,20c-3.8,7.2-15,9.5-16.3,17.5
			c-0.6,3.5,1.3,7.3,4.5,8.9c3.2,1.6,7.3,1,9.9-1.5c-2.5,6.6,1.3,14.8,8,17.1c6.6,2.3,14.8-1.8,16.8-8.5
			c0.7,11.2,11.2,20.8,22.5,20.5c11.2-0.3,21.2-10.6,21.2-21.8c2.4,3.6,5.5,7,9.4,8.8s8.8,2.1,12.5-0.2c3.7-2.3,5.8-7.3,4-11.3
			c6.2,6.3,17.3,7.4,24.1,1.8c6.8-5.6,7.5-17.5,0.9-23.3c6.2-0.1,12.9-0.7,17.7-4.7c4.8-4,6.3-12.4,1.4-16.3c-5.1-4-13-0.7-18.8-3.5
			c-5-2.4-6.9-8.3-9-13.4c-7.8-18.8-24.5-33.7-44-39.4c-19.6-5.6-41.6-1.9-58.3,9.9"/>
		<path class="st6" d="M738.4,276.4c-3.7,30.8-8,101.6,30.7,99.5v24l-24.4,10.6c0,0,11.7,32.1,62.5,26.1c50.7-6,49.4-27.4,49.4-27.4
			l-32-10l-0.7-58.1c0,0,15.1,1.1,14.7-18c-0.4-18-16.7-16-16.7-16l-1-32.3c-0.2-6.9-5.9-12.5-12.8-12.5h-53.8
			C746.1,262.4,739.4,268.4,738.4,276.4z"/>
		<g>
			<path class="st5" d="M777.9,300.1c3.8-0.1,7.2-2.7,11-3.6c4.9-1.2,9.6-0.5,14.5-1c1.3-0.1,1.6-1.9,0.3-2.4
				c-4.5-1.6-10.2-0.8-14.8,0.3c-3.8,0.9-9.4,2.2-11.5,5.8C777.2,299.6,777.4,300.1,777.9,300.1L777.9,300.1z"/>
		</g>
		<g>
			<g>
				<path class="st7" d="M804.4,304.7c-3.1-3.7-8.3-5.5-13.1-4.7c-4.8,0.9-9,4.4-10.6,9c3.8,1.3,7.7,2.6,11.7,2.4
					C796.4,311.3,802.8,308.4,804.4,304.7"/>
			</g>
			<path class="st8" d="M798.7,302.3c0.8,2.5,0.1,5.6-1.6,7.3c-1.8,1.7-4.5,1.8-6.4,0.3c-1.9-1.5-2.8-4.5-2.1-7.1
				c0,0,1.4-3.3,5.6-4.1C798.4,298,798.7,302.3,798.7,302.3z"/>
		</g>
		<g>
			<g>
				<path class="st7" d="M761.7,310.7c-1.8-4.3-5.8-7.2-10-7.4c-4.3-0.1-8.7,2.5-11.2,6.7c2.9,2.1,5.9,4.2,9.4,4.9
					c3.5,0.6,10.1-1,12.3-4.4"/>
			</g>
			<path class="st8" d="M756.4,306.5c0.5,2.4-0.2,5.4-1.8,6.9c-1.6,1.5-3.8,1.5-5.3,0c-1.5-1.5-2.1-4.5-1.4-6.9c0,0,1.3-3.2,4.9-3.6
				C756.4,302.3,756.4,306.5,756.4,306.5z"/>
		</g>
		<g>
			<path class="st5" d="M739,301.9c3.9-1.9,8.2-3.1,12.6-3c4.1,0.2,7.4,1.8,11.2,3.1c1,0.3,1.8-1.1,1-1.8
				c-6.8-5.8-18.7-4.5-25.5,0.5C737.6,301.2,738.2,302.2,739,301.9L739,301.9z"/>
		</g>
		<g>
			<path class="st9" d="M824.4,312.3c-4.3,1.6-6.1,7.8-5.9,12c0.1,1.4,2.1,1.8,2.5,0.3c0.8-3,5.3-4,6.1-0.4c0.6,3-2.1,3.4-4,3.9
				c-0.8,0.2-1.2,1.6-0.3,2c4.7,2,8.6-4.1,6.2-8.1c-2.8-4.6-9.2-3-10.5,1.9c0.8,0.2,1.6,0.5,2.4,0.7c0.5-2.3,1-4.4,2-6.5
				c0.8-1.6,1.9-3.1,2.3-4.9C825.4,312.7,824.9,312.1,824.4,312.3L824.4,312.3z"/>
		</g>
		<path class="st5" d="M734.3,293c21.7-1.9,42.6-11.8,57.9-27.2c0.8,3.3,1.6,6.6,3.3,9.5c1.7,2.9,4.5,5.4,7.9,5.8
			c3.3,0.5,7.1-1.6,7.8-4.9c0.9,9.9,4.3,30.4,12.7,30.9c1-11.1-0.5-25.6,0-36.7c0.1-2.3,0.1-4.9-1.6-6.5c-1-1-2.4-1.4-3.7-1.7
			c-17.6-4.4-36-4-54.2-3.5c-6.3,0.2-13,0.4-18.4,3.7c-4.9,3-8.1,8.1-9.9,13.5c-1.8,5.4-2.3,11.2-2.8,16.9"/>
		<g class="st10">
			<path class="st11" d="M802.8,316.1c-6-1.4-12.6,0.4-17,4.6c-0.6,0.6-1.3,1.3-1.3,2.2c0,1.8,2.2,2.5,4,2.6
				c3.7,0.3,7.5,0.1,11.2-0.4c1.6-0.2,3.1-0.6,4.5-1.4c1.3-0.8,2.4-2.2,2.5-3.8c0-1.3-0.7-2.6-1.8-3.3c-1.1-0.7-2.6-0.7-3.7-0.1"/>
		</g>
		<g>
			<path class="st9" d="M770.7,305.6c-0.9,4.6-0.4,9.3-0.2,13.9c0.1,4.3-0.9,10.6,0.6,14.7c1.4,4,5.1,2.2,7-0.5
				c0.8-1.1-1-2.5-1.9-1.5c-3.2,3.7-3.2-4.1-3.2-5.8c-0.1-2.3-0.1-4.6-0.2-6.9c-0.1-4.6,0.2-9.4-1-13.9
				C771.7,305.1,770.8,305,770.7,305.6L770.7,305.6z"/>
		</g>
		<g class="st10">
			<path class="st11" d="M779.7,343.9c1.4-1,1.5-3,2.7-4.2c1.2-1.2,3.4-1.4,4.1-2.9c0.4-0.8,0.3-1.5-0.3-2.2
				c-1.9-2.3-5.8,0.1-7.2,1.7c-1.6,1.7-3.6,5.3-1.5,7.3C778.1,344.1,779.1,344.4,779.7,343.9L779.7,343.9z"/>
		</g>
		<g class="st10">
			<path class="st11" d="M779.1,347.4c1.5-0.3,2.9-0.3,4.4-0.9c1.2-0.5,2.4-1.2,3.4-2c2.1-1.7,4.7-4.5,4.6-7.3
				c-0.1-2-2.8-3.6-4.3-1.8c-1.4,1.7-1.9,4-3.3,5.8c-1.3,1.6-3.4,3.6-5.5,4.1C777.1,345.6,777.7,347.7,779.1,347.4L779.1,347.4z"/>
		</g>
		<g>
			<path class="st9" d="M774.3,346.7c7.1-1.6,15.1-8,17.2-15.1c0.3-1.2-1.2-1.7-1.9-0.8c-2.1,3.1-3.7,6.2-6.6,8.7
				c-2.8,2.5-6,4-9.4,5.5C772.5,345.4,773.3,346.9,774.3,346.7L774.3,346.7z"/>
		</g>
		<g>
			<path class="st9" d="M780.7,309.9c5.9-8.7,13.9-11.7,23-5.4c1.3,0.9,2.8-1.1,1.6-2.1c-8-7.1-23.6-4.5-26.2,6.9
				C779,310.2,780.2,310.7,780.7,309.9L780.7,309.9z"/>
		</g>
		<g>
			<path class="st9" d="M740.7,310.8c3-2.8,5-5.8,9.5-6.2c4.9-0.4,8.6,2.5,10.6,6.7c0.9,1.9,3.7,0.2,2.8-1.6
				c-2.4-4.9-7.4-8.2-12.9-8c-4.6,0.2-10.6,3.3-11.3,8.3C739.2,310.8,740.1,311.4,740.7,310.8L740.7,310.8z"/>
		</g>
		<path class="st12" d="M731.6,273.1c0.7-15.6,10.9-30.5,25.2-36.7c5.9-2.6,12.3-3.7,18.2-6.1c9-3.5,16.8-9.5,25.7-13.3
			c12.4-5.3,27.3-5.7,39.1,0.9c11.7,6.7,19.2,21.1,15.8,34.2c-2.2,8.3-8.1,15.1-11.5,23c-2.3,5.4-3.8,16.4-9.2,18.4
			c-5.7,2.1-11.8-6.6-16.6-10.2c-12.3-9.3-26.6-16.2-41.8-18.6c-15.2-2.4-31.4,0.1-44.5,8.3"/>
		<path class="st12" d="M843.6,226.4c1.4,1.1,2.9,2.3,4.6,3c1.7,0.7,3.6,1,5.4,0.4c2.2-0.8,3.7-3,4.4-5.3c0.8-2.8,0.7-5.9-0.7-8.4
			c-1.4-2.5-4-4.4-6.9-4.5c-2.3-0.1-4.4,0.9-6.3,2.2c-3.1,2.2-5.6,5.7-5.5,9.6c0.1,3.8,3.4,7.6,7.2,7.2"/>
		<g>
			<path class="st13" d="M734.4,260.1c14.8-14.4,40.1-11.8,58.7-7.9c18.5,3.9,35.4,12.8,47.1,27.9c0.6,0.8,1.7,0,1.1-0.8
				c-12.7-16.3-31.9-25.5-52-28.8c-17.2-2.9-42.5-5.5-55.2,9.3C733.9,260,734.2,260.3,734.4,260.1L734.4,260.1z"/>
		</g>
		<g>
			<path class="st13" d="M744.8,252.5c-0.9,4-0.5,8.3,1,12.2c0.2,0.5,1,0.3,0.8-0.2c-1.3-3.9-1.7-7.8-1.4-11.9
				C745.2,252.3,744.9,252.3,744.8,252.5L744.8,252.5z"/>
		</g>
		<g>
			<path class="st13" d="M754.9,250.2c-0.3,3.7,0,7.8,0.4,11.4c0.1,0.5,0.7,0.5,0.7,0c0-3.7-0.2-7.8-0.9-11.5
				C755.1,250,754.9,250,754.9,250.2L754.9,250.2z"/>
		</g>
		<g>
			<path class="st13" d="M768.3,248.9c-0.2,4.1-0.4,8.4-0.4,12.5c0,0.4,0.6,0.5,0.7,0.1c0.7-4,0.7-8.6,0.1-12.7
				C768.7,248.6,768.3,248.7,768.3,248.9L768.3,248.9z"/>
		</g>
		<g>
			<path class="st13" d="M780.3,264.1c2.3-4.3,3.6-8.4,3.4-13.3c0-0.6-0.9-0.6-0.9,0c0.1,4.4-0.8,9.2-2.8,13.1
				C779.9,264.1,780.2,264.3,780.3,264.1L780.3,264.1z"/>
		</g>
		<g>
			<path class="st13" d="M791.3,267.5c3.3-3.6,5.8-7.7,7.5-12.3c0.2-0.6-0.7-0.9-1-0.3c-1.7,4.5-3.9,8.6-6.8,12.3
				C790.9,267.4,791.1,267.7,791.3,267.5L791.3,267.5z"/>
		</g>
		<g>
			<path class="st13" d="M804.6,273.7c2.8-5,5.7-10,8-15.3c0.2-0.6-0.5-1-0.8-0.5c-2.9,4.9-5.3,10.3-7.7,15.4
				C803.9,273.7,804.4,274,804.6,273.7L804.6,273.7z"/>
		</g>
		<g>
			<path class="st13" d="M820.3,282.3c2.2-4.4,4.3-8.8,6.1-13.4c0.2-0.6-0.7-0.8-0.9-0.3c-1.7,4.6-3.5,9-5.7,13.4
				C819.6,282.3,820.1,282.6,820.3,282.3L820.3,282.3z"/>
		</g>
		<g>
			<path class="st13" d="M799,250.3c4.8-11.4,13.2-15.4,24.6-17.9c3-0.7,6-1.4,8.6-3c2.2-1.4,8.6-9.8,11-6.5c0.2,0.3,0.8,0,0.6-0.3
				c-1-1.5-2-2.1-3.9-1.7c-2,0.5-2.6,2.3-3.9,3.6c-4.2,4.6-7.9,6.2-13.9,7.4c-10.9,2.3-19.6,7.3-23.7,18.2
				C798.3,250.5,798.9,250.6,799,250.3L799,250.3z"/>
		</g>
		<g>
			<path class="st13" d="M846.4,226.5c0.1,2.8,0.2,5.6,0.2,8.4c-1.1,1.6-2.3,3.1-3.8,4.2c-1.2,1.1-2.5,2-3.7,3
				c-2.1,1.8-4.1,3.7-5.1,6.5c-2.6,7.2,3.8,15.2-2.7,21.4c-0.3,0.3,0.2,0.8,0.5,0.5c2.2-1.9,3.1-3.7,3.4-6.7
				c0.2-2.1-0.2-4.1-0.5-6.2c-0.8-6.4,0-10.6,4.9-15c4.7-4.2,12.3-9.6,7.1-16.4C846.6,226.1,846.3,226.3,846.4,226.5L846.4,226.5z"
				/>
		</g>
		<g>
			<path class="st13" d="M774.7,248c1.4-5.9,4.3-11.1,9.7-14.2c4.8-2.8,10.3-2.3,15.3-4.3c9-3.5,13.7-16.9,25.2-12.6
				c0.3,0.1,0.5-0.4,0.2-0.5c-4.1-2.3-8.2-1.2-12,1.3c-6.4,4.2-9.7,10.5-17.9,12.2c-10.4,2.2-19.6,6.3-21.1,18.1
				C774.1,248.3,774.6,248.3,774.7,248L774.7,248z"/>
		</g>
		<g>
			<path class="st9" d="M824.4,335.1c-2.9,2.9-5.2,6.9-3.9,11.2c1.1,3.2,4.1,5.6,7.4,6c8.4,1,13.9-9.1,9.2-15.9
				c-0.9-1.3-2.6-0.2-2,1.2c1.2,2.7,1.8,5.7,0.2,8.4c-1.3,2.3-3.9,3.8-6.5,3.7c-2.8-0.1-5.4-2.2-6.1-4.9c-0.8-3.1,1.1-6.1,3.1-8.3
				C826.7,335.6,825.3,334.2,824.4,335.1L824.4,335.1z"/>
		</g>
	</g>
</g>
<g>
	<path class="st14" d="M1091.2,650.2c1.1-0.1-1.5-19.1-0.5-18.7c2.6,1.1-4.2-202.1-74.6-223.7c-45-13.8-100.4,8.8-100.4,8.8
		s-58.9,37.7-58.9,224.1L1091.2,650.2z"/>
	<g>
		<g>
			<path class="st15" d="M908.4,278.1c-3.7,30.8-8,101.6,30.7,99.5v24l-23.4,12c0,0,10.7,30.7,61.4,24.7c50.7-6,49.4-27.4,49.4-27.4
				l-32-10l-0.7-58.1c0,0,15.1,1.1,14.7-18c-0.4-18-16.7-16-16.7-16l-1-32.3c-0.2-6.9-5.9-12.5-12.8-12.5h-53.8
				C916.1,264.1,909.3,270.1,908.4,278.1z"/>
			<path class="st16" d="M991.8,308.8l2-0.1c0,0,2.7,43.6,0.4,50.1c-2.3,6.5-39.2,36.7-61.1,26.3c-25.1-12-25.5-46.1-25.5-46.1
				c-0.5-2.7-1.3-6-1.5-11.6c-0.1-1.5,11.8,9.1,15.2,10.9c5.6,2.9,12.7,1.7,18.9,1.1c6.3-0.6,13.3-2,19.6-2.4
				c5.1-0.3,9.4-2.3,14.2-4.1c4.9-1.9,8.8-5.9,11.5-10.4c2.7-4.5,4.4-9.6,6-14.6"/>
			<path class="st17" d="M992.6,304.8"/>
			<g>
				<path class="st16" d="M947.9,301.8c3.8-0.1,7.2-2.7,11-3.6c4.9-1.2,9.6-0.5,14.5-1c1.3-0.1,1.6-1.9,0.3-2.4
					c-4.5-1.6-10.2-0.8-14.8,0.3c-3.8,0.9-9.4,2.2-11.5,5.8C947.1,301.3,947.4,301.8,947.9,301.8L947.9,301.8z"/>
			</g>
			<g>
				<g>
					<path class="st7" d="M974.3,306.4c-3.1-3.7-8.3-5.5-13.1-4.7c-4.8,0.9-9,4.4-10.6,9c3.8,1.3,7.7,2.6,11.7,2.4
						C966.4,313,972.8,310.2,974.3,306.4"/>
				</g>
				<path class="st16" d="M968.1,304.7c0.8,2.4,0.1,5.3-1.5,6.9c-1.7,1.6-4.2,1.7-6,0.3c-1.8-1.4-2.6-4.3-2-6.7c0,0,1.3-3.2,5.3-3.9
					C967.8,300.6,968.1,304.7,968.1,304.7z"/>
			</g>
			<g>
				<g>
					<path class="st7" d="M931.7,312.4c-1.8-4.3-5.8-7.2-10-7.4c-4.3-0.1-8.7,2.5-11.2,6.7c2.9,2.1,5.9,4.2,9.4,4.9
						c3.5,0.6,10.1-1,12.3-4.4"/>
				</g>
				<path class="st16" d="M926.5,309c0.1,2.5-1.2,5.3-3,6.5c-1.8,1.2-4,0.8-5.2-1c-1.2-1.8-1.2-4.8-0.1-7.1c0,0,1.9-2.9,5.5-2.7
					C927.2,304.9,926.5,309,926.5,309z"/>
			</g>
			<g>
				<path class="st16" d="M909,303.6c3.9-1.9,8.2-3.1,12.6-3c4.1,0.2,7.4,1.8,11.2,3.1c1,0.3,1.8-1.1,1-1.8
					c-6.8-5.8-18.7-4.5-25.5,0.5C907.6,302.9,908.2,303.9,909,303.6L909,303.6z"/>
			</g>
			<g>
				<path class="st9" d="M1000.7,317.5c-0.5,1.5-1.5,2.7-2.2,4.1c-0.9,1.9-1.4,3.8-1.7,5.8c-0.5-0.2-1.1-0.3-1.6-0.5
					c1-3.9,6-5.5,8.5-1.9c2.3,3.2-0.6,8.6-4.7,7.2c-0.6-0.2-0.7-1.2,0-1.4c1.9-0.4,4.3-1,3.7-3.8c-0.8-3.4-5.1-2.6-5.9,0.3
					c-0.2,0.9-1.7,0.7-1.7-0.2c0-3.6,1.4-8.5,4.9-10.3C1000.3,316.8,1000.9,317.1,1000.7,317.5L1000.7,317.5z"/>
			</g>
			<g class="st10">
				<path class="st11" d="M972.7,317.8c-6-1.4-12.6,0.4-17,4.6c-0.6,0.6-1.3,1.3-1.3,2.2c0,1.8,2.2,2.5,4,2.6
					c3.7,0.3,7.5,0.1,11.2-0.4c1.6-0.2,3.1-0.6,4.5-1.4c1.3-0.8,2.4-2.2,2.5-3.8c0-1.3-0.7-2.6-1.8-3.3c-1.1-0.7-2.6-0.7-3.7-0.1"/>
			</g>
			<g>
				<path class="st9" d="M950.7,311.6c5.9-8.7,13.9-11.7,23-5.4c1.3,0.9,2.8-1.1,1.6-2.1c-8-7.1-23.6-4.5-26.2,6.9
					C949,311.9,950.2,312.4,950.7,311.6L950.7,311.6z"/>
			</g>
			<g>
				<path class="st9" d="M909.3,311.7c0.7-5,6.7-8.1,11.3-8.3c5.5-0.2,10.6,3.1,12.9,8c0.9,1.9-1.9,3.5-2.8,1.6
					c-2-4.2-5.7-7.1-10.6-6.7c-4.5,0.4-6.5,3.3-9.5,6.2C910,313.1,909.2,312.5,909.3,311.7L909.3,311.7z"/>
			</g>
			<g>
				<path class="st9" d="M957.3,342.4c-4.6,5.1-13.7,9.3-20,4.4c-0.8-0.6-0.3-1.7,0.7-1.6c3.4,0.6,6.3,1.6,9.8,1
					c3.3-0.6,6.6-2.1,8.9-4.6C957,341.2,957.7,342,957.3,342.4L957.3,342.4z"/>
			</g>
			<g>
				<path class="st9" d="M941.8,307.3c1.1,4.5,0.9,9.3,1,13.9c0.1,2.3,0.1,4.6,0.2,6.9c0,1.7,0,9.4,3.2,5.8c0.9-1,2.7,0.3,1.9,1.5
					c-1.8,2.7-5.5,4.5-7,0.5c-1.3-3.7-0.4-9.6-0.5-13.5c-0.2-5-0.8-10.2,0.2-15.1C940.8,306.8,941.6,306.8,941.8,307.3L941.8,307.3z
					"/>
			</g>
		</g>
		<path class="st18" d="M906.1,301.6c-9.1-16.1-19.6-35.6-11.7-52.3c7.9-16.7,29.8-28.6,48-31.8c18.2-3.2,38.7,2.4,51.8,15.5
			c13.1,13,21,33.2,17.9,51.5c-1.8,10.8-10.1,21.7-20.2,25.9l-45-37.7L906.1,301.6z"/>
		<g>
			<path class="st19" d="M1000.8,296.3c-20.6-25.6-45.3-47.5-71-67.8c-1.9-1.5,0.6-4.9,2.7-3.5c26.9,19.5,49.6,43.5,70.3,69.3
				C1003.9,295.7,1001.9,297.7,1000.8,296.3L1000.8,296.3z"/>
		</g>
		<g>
			<path class="st19" d="M916.1,237.1c-0.2,0-0.2-0.3,0-0.3C916.3,236.8,916.3,237.1,916.1,237.1L916.1,237.1z"/>
		</g>
		<g>
			<path class="st19" d="M914.8,236.4c-0.3,0-0.3-0.5,0-0.5C915.2,235.9,915.2,236.4,914.8,236.4L914.8,236.4z"/>
		</g>
		<g>
			<path class="st19" d="M948.4,274.2c-13.5-11.9-27.1-24.3-39.4-37.5c-1.4-1.5,0.7-3.6,2.2-2.2c13.5,11.9,26.3,25.1,38.7,38.3
				C950.8,273.7,949.4,275,948.4,274.2L948.4,274.2z"/>
		</g>
		<g>
			<path class="st19" d="M927.4,255.1c-5.2,3.9-10.3,8.2-15.2,12.4c-4,3.4-7.9,8.3-12.7,10.3c-1,0.4-2.1-0.5-1.6-1.6
				c2.5-5.2,8.7-9.2,13.1-12.7c4.9-3.9,10-7.1,15.3-10.4C927.5,252.5,928.5,254.3,927.4,255.1L927.4,255.1z"/>
		</g>
		<g>
			<path class="st19" d="M1009.4,274.6c-17.5-19.1-33.7-38.5-54.6-54.1c-2.3-1.7,0-5.6,2.3-3.9c20.5,15.6,40,35,54.8,56.1
				C1012.9,274.1,1010.6,275.9,1009.4,274.6L1009.4,274.6z"/>
		</g>
	</g>
</g>
<title>book lover</title>
<ellipse class="st20" cx="336.9" cy="799.5" rx="23.3" ry="2.6"/>
<g>
	<path class="st21" d="M879,380c-15-8.3-31.6-1.8-42.5,8.4c-10.8,10.2-17.1,24.7-19.3,39.4c-2.2,14.7-0.6,29.8,2.5,44.4
		c1.6,7.3,3.8,14.9,9.1,20.1c3.9,3.8,10.8,5.6,14.3,1.5c0.4,3.6,4,6.1,7.6,6.4c3.6,0.4,7.1-1,10.3-2.6c3.2-1.6,6.4-3.4,9.9-4.1
		c3.9-0.8,8-0.2,11.8-1.5c4.3-1.5,7.8-5.6,12.3-5.5c6.6,0,10.3,8.2,16.7,9.8c3.9,1,8-0.8,10.9-3.5c2.9-2.7,4.8-6.3,6.7-9.9
		c-0.7,3.5,3.8,6.1,7.2,5.2c3.4-1,5.7-4.1,7.6-7.1c5.4-8.6,9.8-17.9,13.1-27.5c3.4-10.2,5.6-21.4,2.5-31.7
		c-2.8-9.5-9.7-17.1-16.5-24.4c-8.6-9.1-17.7-18.4-29.3-23.1C902.2,369.7,887.3,370.7,879,380"/>
	<path class="st22" d="M1028.5,721.7c1.2-0.1,0.2-7.8,1.3-7.5c2.8,0.8-4.4-163-78.2-180.4c-47.2-11.1-104.8,4.8-104.8,4.8
		s-62.2,32.7-62.2,183H1028.5z"/>
	<g>
		<path class="st6" d="M839.4,401.9c-3.7,31.1-8.1,102.5,31,100.4v24.2l-23.6,12.1c0,0,10.8,31,62,24.9
			c51.2-6.1,49.8-27.6,49.8-27.6l-32.3-10.1l-0.7-58.6c0,0,15.2,1.1,14.8-18.2c-0.4-18.2-16.8-16.2-16.8-16.2l-1-32.6
			c-0.2-7-5.9-12.6-12.9-12.6h-54.3C847.2,387.8,840.4,393.8,839.4,401.9z"/>
		<g>
			<path class="st21" d="M879.3,425.7c3.9-0.1,7.3-2.7,11.1-3.6c5-1.2,9.7-0.5,14.6-1c1.4-0.1,1.7-1.9,0.3-2.4
				c-4.6-1.6-10.3-0.8-14.9,0.3c-3.9,0.9-9.5,2.2-11.6,5.8C878.5,425.2,878.8,425.8,879.3,425.7L879.3,425.7z"/>
		</g>
		<g>
			<g>
				<path class="st7" d="M906,430.5c-3.2-3.7-8.4-5.6-13.2-4.7c-4.8,0.9-9.1,4.5-10.7,9.1c3.8,1.4,7.8,2.7,11.8,2.5
					C898,437.1,904.4,434.2,906,430.5"/>
			</g>
			<path class="st23" d="M899.9,428.7c0.8,2.4,0.1,5.3-1.6,6.9c-1.7,1.6-4.3,1.7-6.1,0.3c-1.8-1.4-2.7-4.3-2-6.8
				c0,0,1.3-3.2,5.4-3.9C899.6,424.5,899.9,428.7,899.9,428.7z"/>
		</g>
		<g>
			<g>
				<path class="st7" d="M863,436.5c-1.8-4.4-5.8-7.3-10.1-7.4c-4.3-0.1-8.8,2.5-11.3,6.8c2.9,2.1,6,4.3,9.5,4.9
					c3.5,0.6,10.2-1,12.5-4.4"/>
			</g>
			<path class="st23" d="M858.3,432.5c0.4,2.5-0.5,5.4-2.1,6.9c-1.7,1.5-3.9,1.3-5.3-0.3c-1.4-1.6-1.8-4.6-1-7c0,0,1.5-3.1,5.1-3.4
				C858.5,428.3,858.3,432.5,858.3,432.5z"/>
		</g>
		<g>
			<path class="st21" d="M840,427.6c3.9-1.9,8.3-3.2,12.7-3c4.2,0.2,7.5,1.8,11.3,3.1c1,0.3,1.9-1.1,1-1.8
				c-6.9-5.9-18.8-4.6-25.7,0.5C838.6,426.9,839.2,427.9,840,427.6L840,427.6z"/>
		</g>
		<g>
			<path class="st9" d="M926.2,438.1c-4.3,1.6-6.1,7.9-6,12.1c0.1,1.4,2.1,1.8,2.5,0.3c0.8-3,5.4-4,6.1-0.4c0.6,3-2.1,3.4-4,4
				c-0.8,0.2-1.2,1.6-0.3,2c4.8,2,8.7-4.1,6.2-8.2c-2.8-4.7-9.3-3.1-10.6,1.9c0.8,0.2,1.6,0.5,2.5,0.7c0.5-2.3,1-4.5,2-6.6
				c0.8-1.6,1.9-3.1,2.3-4.9C927.2,438.5,926.7,437.9,926.2,438.1L926.2,438.1z"/>
		</g>
		<path class="st21" d="M835.3,418.6c21.9-2,42.9-11.9,58.4-27.5c0.8,3.3,1.6,6.7,3.3,9.6c1.7,2.9,4.6,5.4,7.9,5.9s7.2-1.6,7.9-4.9
			c0.9,10,4.3,30.7,12.8,31.2c1-11.2-0.5-25.9,0-37.1c0.1-2.3,0.1-4.9-1.6-6.6c-1-1-2.4-1.4-3.8-1.7c-17.8-4.5-36.4-4-54.7-3.5
			c-6.4,0.2-13.1,0.4-18.6,3.8c-4.9,3-8.2,8.2-10,13.7c-1.8,5.5-2.3,11.3-2.8,17"/>
		<g class="st10">
			<path class="st11" d="M904.4,441.9c-6-1.4-12.7,0.4-17.2,4.7c-0.6,0.6-1.3,1.3-1.3,2.2c0,1.8,2.2,2.5,4,2.7
				c3.8,0.3,7.6,0.1,11.3-0.4c1.6-0.2,3.2-0.6,4.5-1.4c1.4-0.8,2.4-2.2,2.5-3.8c0-1.3-0.7-2.6-1.8-3.3c-1.1-0.7-2.6-0.7-3.7-0.1"/>
		</g>
		<g>
			<path class="st9" d="M872,431.4c-0.9,4.6-0.4,9.4-0.2,14.1c0.1,4.3-0.9,10.7,0.6,14.8c1.4,4,5.2,2.2,7-0.5c0.8-1.2-1-2.5-1.9-1.5
				c-3.2,3.7-3.2-4.1-3.2-5.8c-0.1-2.3-0.1-4.6-0.2-6.9c-0.1-4.7,0.2-9.5-1-14.1C873,430.8,872.1,430.8,872,431.4L872,431.4z"/>
		</g>
		<g class="st10">
			<path class="st11" d="M881.1,470c1.5-1.1,1.5-3,2.8-4.3c1.2-1.2,3.4-1.4,4.2-2.9c0.4-0.8,0.3-1.5-0.3-2.2
				c-1.9-2.3-5.8,0.1-7.3,1.7c-1.6,1.7-3.7,5.3-1.5,7.4C879.5,470.2,880.5,470.5,881.1,470L881.1,470z"/>
		</g>
		<g class="st10">
			<path class="st11" d="M880.5,473.5c1.5-0.3,3-0.3,4.4-0.9c1.2-0.5,2.4-1.2,3.5-2.1c2.1-1.7,4.7-4.5,4.7-7.4
				c-0.1-2-2.9-3.6-4.3-1.8c-1.4,1.7-1.9,4-3.3,5.8c-1.3,1.7-3.5,3.6-5.5,4.2C878.5,471.7,879.1,473.8,880.5,473.5L880.5,473.5z"/>
		</g>
		<g>
			<path class="st9" d="M875.7,472.8c7.1-1.6,15.3-8.1,17.3-15.3c0.3-1.2-1.3-1.7-1.9-0.8c-2.1,3.1-3.8,6.2-6.7,8.8
				c-2.8,2.5-6.1,4-9.5,5.5C873.8,471.5,874.6,473.1,875.7,472.8L875.7,472.8z"/>
		</g>
		<g>
			<path class="st9" d="M882.1,435.7c5.9-8.7,14-11.8,23.2-5.4c1.3,0.9,2.8-1.1,1.7-2.1c-8-7.1-23.8-4.5-26.4,6.9
				C880.4,436,881.6,436.4,882.1,435.7L882.1,435.7z"/>
		</g>
		<g>
			<path class="st9" d="M841.7,436.6c3-2.8,5.1-5.8,9.6-6.2c4.9-0.4,8.7,2.5,10.7,6.8c0.9,1.9,3.7,0.2,2.8-1.6
				c-2.4-4.9-7.5-8.3-13.1-8.1c-4.7,0.2-10.7,3.4-11.4,8.4C840.3,436.6,841.1,437.2,841.7,436.6L841.7,436.6z"/>
		</g>
	</g>
</g>
<g>
	<path class="st24" d="M564.5,725.2c1.1,1.5-3.8-166.2,69.4-187c44.7-12.7,107.7,3.8,107.7,3.8s52.5,31.8,56.1,189.3L564.5,725.2z"
		/>
	<g>
		<path class="st9" d="M636.1,348.7c-7.1-1.8-14.4-3.7-21.6-2.6c-7.2,1.1-14.4,5.9-15.9,13.1c-1,4.9,0.7,10.2-0.8,15.1
			c-2.8,8.8-14,10.9-21.9,15.6c-12.6,7.4-18.2,24.8-12.2,38.1c2.7,5.9,7.3,11.1,8.1,17.6c0.8,6.6-2.7,13-4.4,19.4
			c-4.1,15.2,2.4,32.3,14.6,42.3c12.2,10,29.2,13.2,44.6,9.9c10.9-2.3,21.6-7.7,32.7-6c11.5,1.8,22.7,11.1,33.4,6.6
			c3.6-1.5,6.8-4.4,10.6-4c3,0.3,5.4,2.7,8,4.3c7.8,4.8,18.3,2.5,25.6-3c10.5-7.9,16-22,13.5-34.9c-2.1-10.5-8.8-19.6-10.5-30.2
			c-1.8-11.5,2.6-23.1,4-34.6c1.5-11.6-1.6-25.7-12.4-30.1c-8.3-3.4-18.8-0.1-25.9-5.6c-6-4.6-6.6-13.2-8.9-20.4
			c-3.7-11.6-13.5-21.3-25.4-23.8c-11.9-2.5-25.3,2.7-31.5,13.2"/>
		<path class="st25" d="M619.9,411.1c-3,30.9-5.7,101.7,32.9,98.7l0.5,24l-23.1,12.5c0,0,11.4,30.4,61.9,23.3
			c50.6-7.2,48.7-28.5,48.7-28.5l-32.3-9.3l-2-58c0,0,15.1,0.8,14.3-18.3c-0.8-18-17-15.6-17-15.6l-2.4-44.7l-66.3,1.5
			C627.3,396.9,620.7,403.1,619.9,411.1z"/>
		<path class="st9" d="M604.5,439.5c6.8,2,14.5,0,19.6-4.9c5.1-4.9,7.3-12.6,5.6-19.4c6.7,4.5,15.9,5,23,1.2
			c7.1-3.8,11.8-11.7,11.8-19.8c5.4,8.4,17.7,11.4,26.4,6.4c-1.6,9.9,1.4,20.5,8.1,28c2.9,3.3,7,6.1,11.4,5.8
			c6.9-0.5,10.9-8.4,10.8-15.3c0-13.2-9.9-25-22-30.4c-12-5.5-25.8-5.6-39-4.2c-13.6,1.5-27.4,4.7-38.2,13.1
			c-10.8,8.4-17.7,22.8-14,35.9"/>
		<g>
			<path class="st26" d="M706.1,438.4c7.1-3.4,7.4-18.7,7.9-25.7c0.7-11.4-0.9-23.1-4.7-33.9c-1.2-3.4-6.4-1.8-5.3,1.6
				c3.3,10.6,5,21.3,4.4,32.4c-0.3,5.8-1.3,11.5-2.6,17.2c-0.8,3.4-1.8,5.1-0.3,8.3C705.6,438.5,705.9,438.5,706.1,438.4
				L706.1,438.4z"/>
		</g>
		<g>
			<path class="st9" d="M651.2,443.3c-0.9,4.8-1.2,9.7-1.5,14.6c-0.3,3.9-1.3,9,0,13c1.3,3.9,5.6,6.4,8.9,3.4
				c0.8-0.7-0.1-2.2-1.1-1.9c-7.6,2.9-5.2-11.5-5.1-14.5c0.2-4.8,0.4-9.6,0.1-14.4C652.4,442.8,651.3,442.6,651.2,443.3L651.2,443.3
				z"/>
		</g>
		<g>
			<path class="st9" d="M656.9,482.6c9.2,0.9,18.9-5.8,19.1-15.7c0-1.3-1.9-1.5-2.2-0.2c-0.8,3.9-1.6,7.3-4.7,10.2
				c-3.2,3.1-7.9,4.8-12.3,4.7C656.2,481.5,656.3,482.5,656.9,482.6L656.9,482.6z"/>
		</g>
		<path class="st11" d="M681.3,450.6c-3.7,0.2-7.2,1.7-9.9,4.3c-0.8,0.7-1.5,1.7-1.3,2.8c0.2,1.1,1.4,1.8,2.4,2.1
			c4.1,1.5,8.8,1.3,12.8-0.4c1.8-0.8,3.7-2.2,3.7-4.2c0-1.5-1.3-2.9-2.7-3.4c-1.4-0.6-3-0.6-4.6-0.6"/>
		<g>
			<path class="st9" d="M657.7,430.6c3.5-0.2,6.6-2.8,10.1-3.8c4.5-1.3,8.8-0.7,13.3-1.3c1.4-0.2,1.6-1.9,0.3-2.4
				c-4.2-1.5-9.5-0.5-13.7,0.6c-3.5,1-8.8,2.5-10.5,6C657,430.2,657.3,430.7,657.7,430.6L657.7,430.6z"/>
		</g>
		<g>
			<g>
				<path class="st7" d="M685.7,437.7c-3.2-3.6-8.4-5.4-13.2-4.4c-4.8,1-8.9,4.6-10.4,9.2c3.8,1.3,7.8,2.5,11.8,2.2
					c4-0.3,8.1-2.5,9.6-6.2"/>
				<g>
					<path class="st9" d="M661.5,442.8c4-2,4.8-7,9.9-8.2c4.6-1.1,10.2,2.1,14,4.6c1.4,0.9,3-1.3,1.7-2.4c-4-3.4-10.5-6.5-15.8-5.5
						c-4.5,0.8-11.3,5.8-10.6,11C660.8,442.8,661.1,443,661.5,442.8L661.5,442.8z"/>
				</g>
			</g>
			<path class="st9" d="M677.7,436.1c0.8,2.3,0.2,5.3-1.4,6.9c-1.6,1.6-4.2,1.8-6,0.4c-1.8-1.4-2.7-4.2-2.2-6.6c0,0,1.2-3.2,5.2-4
				C677.4,432,677.7,436.1,677.7,436.1z"/>
		</g>
		<g>
			<g>
				<path class="st7" d="M642.7,444.7c-1.9-4.3-5.9-7.1-10.2-7.1c-4.3,0-8.7,2.7-11.1,6.9c3,2.1,6,4.1,9.5,4.6
					c3.5,0.5,7.5-0.7,9.7-4.1"/>
				<g>
					<path class="st9" d="M620.9,444.6c3.6-1,5.1-5.1,9.1-5.8c4.7-0.8,8.9,3.5,11.7,6.9c1.2,1.4,3.6,0.1,2.5-1.6
						c-2.6-4.2-7.8-9.1-13.1-8.9c-4.3,0.2-10.8,4-11,8.8C620.2,444.5,620.6,444.7,620.9,444.6L620.9,444.6z"/>
				</g>
			</g>
			<path class="st9" d="M636.3,441.5c0.2,2.5-1.1,5.3-2.8,6.5c-1.8,1.3-4,0.9-5.2-0.8c-1.2-1.7-1.3-4.7-0.3-7c0,0,1.8-2.9,5.4-2.8
				C636.9,437.3,636.3,441.5,636.3,441.5z"/>
		</g>
		<g>
			<path class="st9" d="M620.9,434.8c3.9-2,8.1-3.3,12.5-3.2c4.1,0.1,7.4,1.6,11.3,2.8c1,0.3,1.8-1.1,1-1.8
				c-7-5.7-18.8-4.1-25.5,1.1C619.5,434.2,620.1,435.2,620.9,434.8L620.9,434.8z"/>
		</g>
		<g>
			<path class="st9" d="M709.6,444.9c-4.3,1.7-5.9,7.9-5.6,12.1c0.1,1.4,2.2,1.7,2.5,0.3c0.7-3,5.2-4.1,6.1-0.5c0.7,3-2,3.4-3.9,4
				c-0.8,0.3-1.1,1.6-0.2,2c4.8,1.9,8.5-4.3,6-8.3c-2.9-4.6-9.3-2.8-10.4,2.1c0.8,0.2,1.6,0.4,2.5,0.6c0.4-2.3,0.9-4.5,1.9-6.6
				c0.7-1.6,1.8-3.1,2.2-4.9C710.7,445.3,710.2,444.7,709.6,444.9L709.6,444.9z"/>
		</g>
	</g>
</g>
<g>
	<path class="st27" d="M351.8,733.9c1.1,1.4-7.7-185.3,66-202.7c45-10.6,107.6,5.7,107.6,5.7s51.8,30.1,51.8,173.5L351.8,733.9z"/>
	<g>
		<g>
			<path class="st9" d="M443.6,421c0.2-8.1-4.9-16.1-12.4-19.4c-7.5-3.2-16.8-1.5-22.6,4.3c-4.1,4.1-6.4,10.3-5.1,15.9
				c1,4.4,4,8,7.3,11c4.4,3.9,9.9,6.9,15.7,7.7c5.9,0.9,12.2-0.6,16.6-4.5c4.5-3.9,6.7-10.4,5-16.1"/>
			<g>
				<g>
					<path class="st28" d="M489.2,366.1c22.8,0,39.5,23.7,39.9,34.8c1.2,32.9,6.9,95.9-33.5,97l-0.4,26.9l31.1,11.8
						c0,0-15.9,37.5-71.3,30.9c-55.4-6.6-55.4-30.3-55.4-30.3l35-11.4l0.7-58c0,0-16.5,1.2-16-19.7c0.4-19.7,18.2-17.5,18.2-17.5
						l0.8-27.5C439.1,384.4,458.5,365.9,489.2,366.1"/>
					<g>
						<path class="st9" d="M485.6,423c-4.2-0.1-7.9-2.9-12-3.9c-5.4-1.3-10.5-0.6-15.8-1.1c-1.5-0.2-1.8-2.1-0.4-2.6
							c5-1.8,11.1-0.8,16.2,0.3c4.2,1,10.2,2.4,12.6,6.3C486.4,422.4,486.1,423,485.6,423L485.6,423z"/>
					</g>
					<g>
						<g>
							<path class="st7" d="M457.4,425c3.8-2.6,9.6-3.3,14.7-1.9c5.1,1.4,9.2,5,10.4,9c-4.3,0.5-8.7,1-13,0.2
								C465.3,431.6,458.7,428.3,457.4,425"/>
						</g>
						<path class="st9" d="M465.5,424.6c-0.8,2.3-0.1,5.1,1.7,6.6c1.8,1.5,4.5,1.6,6.5,0.3s2.8-4.1,2.2-6.4c0,0-1.4-3-5.7-3.7
							C465.8,420.7,465.5,424.6,465.5,424.6z"/>
					</g>
					<g>
						<path class="st9" d="M429.1,437.3c0.5,1.9,1.7,3.5,2.5,5.3c1.1,2.3,1.7,4.7,2.2,7.1c0.9-0.2,1.8-0.5,2.7-0.7
							c-1.4-5.4-8.4-7.2-11.4-2.1c-2.7,4.4,1.6,11.1,6.8,8.9c1-0.4,0.6-1.9-0.3-2.2c-2.1-0.6-5-1-4.4-4.3c0.8-4,5.8-2.9,6.7,0.4
							c0.4,1.5,2.7,1.2,2.7-0.4c0.2-4.5-1.8-11.3-6.5-13.1C429.4,436.1,428.9,436.7,429.1,437.3L429.1,437.3z"/>
					</g>
					<g class="st10">
						<path class="st11" d="M458.4,440.5c6.5-1.5,13.7,0.5,18.6,5.1c0.7,0.7,1.4,1.5,1.4,2.4c0,1.9-2.4,2.7-4.3,2.9
							c-4.1,0.3-8.2,0.2-12.2-0.5c-1.7-0.3-3.4-0.6-4.9-1.5c-1.5-0.9-2.6-2.4-2.7-4.1c0-1.4,0.7-2.8,1.9-3.6c1.2-0.7,2.8-0.8,4-0.1"
							/>
					</g>
					<g>
						<path class="st9" d="M482.5,433.7c-6.4-9.5-15.1-12.8-25.2-5.9c-1.4,1-3-1.2-1.8-2.3c8.7-7.7,25.8-4.9,28.6,7.5
							C484.3,434,483.1,434.5,482.5,433.7L482.5,433.7z"/>
					</g>
					<g>
						<path class="st9" d="M526.2,420.7c-3.7,1.3-7.9-0.1-11.9,0.3c-5.2,0.5-9.5,2.9-14.4,4.2c-1.4,0.3-2.2-1.4-1.1-2.3
							c3.8-3.3,9.6-4.5,14.5-5c4-0.5,9.8-1.1,13.1,1.8C526.7,419.9,526.6,420.5,526.2,420.7L526.2,420.7z"/>
					</g>
					<g>
						<g>
							<path class="st7" d="M501.8,431.9c2.6-3.7,7.5-6.3,12.5-6.6c4.9-0.3,9.7,1.7,12.1,5.1c-3.6,1.9-7.4,3.8-11.4,4.5
								C510.8,435.6,504,434.6,501.8,431.9"/>
						</g>
						<path class="st9" d="M508.9,428.9c0,2.4,1.4,4.8,3.5,5.7c2.1,0.8,4.5,0.1,5.8-1.9c1.3-1.9,1.2-4.8-0.1-6.8
							c0,0-2.2-2.4-6.2-1.6C507.9,425.1,508.9,428.9,508.9,428.9z"/>
					</g>
					<g>
						<path class="st9" d="M526.8,431.8c-8.6-6.8-17.4-7.1-24.2,2.8c-0.9,1.4-3.1-0.1-2.3-1.6c5.3-10.2,21.3-13.1,27.7-2.3
							C528.5,431.5,527.5,432.4,526.8,431.8L526.8,431.8z"/>
					</g>
					<g>
						<path class="st9" d="M493.3,429c-1.2,4.9-0.9,10.2-1.1,15.2c-0.1,2.5-0.1,5-0.2,7.5c0,1.8,0,10.3-3.5,6.3
							c-1-1.1-2.9,0.4-2.1,1.6c2,3,6,4.9,7.6,0.6c1.5-4.1,0.5-10.4,0.6-14.7c0.2-5.4,0.8-11.1-0.2-16.5
							C494.4,428.4,493.4,428.5,493.3,429L493.3,429z"/>
					</g>
				</g>
			</g>
			<path class="st9" d="M490.5,364.9c0,0-57.9-4.8-55.6,51.2l45.3-3.4V398l5.8,14.4l44.7,0.6C530.6,413,534.5,363.2,490.5,364.9z"/>
			<g class="st10">
				<path class="st11" d="M476.7,466.7c2.4,0.9,4.8,2.1,7.3,2.7c2.2,0.5,4.4-2.5,2.4-4.1c-2.8-2.3-6.2-2.7-9.7-1.8
					C475.1,464,475.3,466.2,476.7,466.7L476.7,466.7z"/>
			</g>
			<g class="st10">
				<path class="st11" d="M473.5,469.1c1.9,2.1,3.5,3.6,6.3,4.5c2.4,0.8,5.4,1,7.4-0.8c1-0.9,0.5-2.8-0.8-3.1
					c-1.8-0.5-3.6,0-5.4-0.3c-1.8-0.3-4.1-1.1-5.4-2.5C474.3,465.6,472.2,467.7,473.5,469.1L473.5,469.1z"/>
			</g>
			<g>
				<path class="st9" d="M473.6,461.8c1.5,3.1,3.2,5.5,6.4,7.3c2.6,1.4,6.1,2.5,9.1,1.6c0.9-0.3,0.9-1.6,0-1.8
					c-2.7-0.7-5.2-0.8-7.7-2.1c-2.5-1.2-5.2-3.2-6.7-5.5C474.2,460.5,473.3,461.1,473.6,461.8L473.6,461.8z"/>
			</g>
			<g class="st10">
				<path class="st11" d="M508.2,445.7c6.5-1.5,13.7,0.5,18.6,5.1c0.7,0.7,1.4,1.5,1.4,2.4c0,1.9-2.4,2.7-4.3,2.9
					c-4.1,0.3-8.2,0.2-12.2-0.5c-1.7-0.3-3.4-0.6-4.9-1.5c-1.5-0.9-2.6-2.4-2.7-4.1c0-1.4,0.7-2.8,1.9-3.6c1.2-0.7,2.8-0.8,4-0.1"/>
			</g>
		</g>
		<g>
			<path class="st29" d="M431.7,407.4c1.8-6.4,3.1-12.8,4.1-19.4c0.8-5.1,2.1-10.4,1.2-15.5c-0.2-1.2-2.2-1.5-2.7-0.4
				c-2.3,4.7-2.4,10.1-3.1,15.2c-0.8,6.6-1.3,13.1-1.3,19.8C429.9,408.2,431.4,408.4,431.7,407.4L431.7,407.4z"/>
		</g>
		<g>
			<path class="st29" d="M424.6,407.9c-3.1-9.6-7.2-19-11.1-28.2c-0.9-2-4.2-1.2-3.4,0.9c3.9,9.4,7.7,19.1,12.4,28.2
				C423.2,409.9,425,409.1,424.6,407.9L424.6,407.9z"/>
		</g>
	</g>
</g>
<g>
	<path class="st30" d="M708.8,805.3c1.2,1.5,0.5-106.1,47.6-121C803.4,669.3,863,688,863,688s57.2,17.3,57.2,117.2H708.8z"/>
	<g>
		<path class="st28" d="M872.6,546c3.9,32.9,8.5,108.4-32.8,106.2v25.7l28,11.2c0,0-14.5,34.4-68.6,28
			c-54.2-6.4-46.2-31.8-46.2-31.8l27.4-8.6l0.9-61.6c0,0-16.1,1.2-15.7-19.2c0.4-19.2,17.8-17.1,17.8-17.1l1-34.4
			c0.2-7.4,6.3-13.3,13.7-13.3h57.5C864.3,531.1,871.6,537.5,872.6,546z"/>
		<g>
			<path class="st26" d="M830.4,571.3c-4.1-0.1-7.7-2.8-11.7-3.8c-5.3-1.3-10.2-0.6-15.5-1.1c-1.4-0.1-1.8-2-0.3-2.5
				c4.8-1.7,10.9-0.8,15.8,0.3c4.1,1,10,2.4,12.3,6.2C831.2,570.8,830.9,571.3,830.4,571.3L830.4,571.3z"/>
		</g>
		<g>
			<g>
				<path class="st7" d="M802.1,576.3c3.4-3.9,8.9-5.9,14-5c5.1,0.9,9.6,4.7,11.3,9.6c-4,1.4-8.2,2.8-12.5,2.6
					C810.6,583.3,803.8,580.2,802.1,576.3"/>
			</g>
			<path class="st31" d="M808.8,574.4c-0.8,2.5-0.1,5.6,1.7,7.3c1.8,1.7,4.5,1.8,6.4,0.3c1.9-1.5,2.8-4.6,2.2-7.1
				c0,0-1.4-3.4-5.7-4.1C809.1,570,808.8,574.4,808.8,574.4z"/>
		</g>
		<g>
			<g>
				<path class="st7" d="M847.7,582.7c1.9-4.6,6.1-7.7,10.7-7.9c4.6-0.1,9.3,2.7,12,7.1c-3.1,2.3-6.3,4.5-10.1,5.2
					c-3.7,0.7-10.8-1.1-13.2-4.7"/>
			</g>
			<path class="st31" d="M853.3,579c-0.1,2.7,1.3,5.6,3.2,6.9c1.9,1.3,4.3,0.9,5.5-1c1.3-1.9,1.3-5.1,0.1-7.5c0,0-2-3.1-5.8-2.9
				C852.5,574.7,853.3,579,853.3,579z"/>
		</g>
		<g>
			<path class="st26" d="M871.9,573.2c-4.2-2-8.8-3.4-13.4-3.2c-4.4,0.2-7.9,1.9-12,3.3c-1,0.3-2-1.2-1.1-1.9
				c7.3-6.2,19.9-4.8,27.2,0.5C873.4,572.5,872.8,573.6,871.9,573.2L871.9,573.2z"/>
		</g>
		<g>
			<path class="st9" d="M775.1,585.3c0.4,1.9,1.6,3.4,2.5,5.2c1.1,2.2,1.6,4.6,2.2,7c0.9-0.2,1.7-0.5,2.6-0.7c-1.3-5.3-8.2-7-11.2-2
				c-2.6,4.3,1.5,10.8,6.6,8.7c1-0.4,0.6-1.9-0.3-2.1c-2-0.6-4.9-1-4.3-4.2c0.8-3.9,5.7-2.8,6.5,0.4c0.4,1.5,2.6,1.2,2.7-0.4
				c0.2-4.4-1.7-11.1-6.3-12.8C775.5,584.1,775,584.7,775.1,585.3L775.1,585.3z"/>
		</g>
		<path class="st26" d="M876.9,563.7c-23.1-2.1-45.4-12.6-61.8-29.1c-0.8,3.5-1.7,7.1-3.5,10.2c-1.8,3.1-4.8,5.7-8.4,6.2
			c-3.6,0.5-7.6-1.7-8.3-5.2c-0.9,10.5-4.6,32.5-13.6,33c-1.1-11.8,0.5-27.4,0-39.2c-0.1-2.5-0.1-5.2,1.7-6.9c1.1-1,2.5-1.5,4-1.8
			c18.8-4.7,38.5-4.2,57.9-3.7c6.8,0.2,13.9,0.5,19.6,4c5.2,3.2,8.7,8.7,10.6,14.5c1.9,5.8,2.5,11.9,3,18"/>
		<g class="st10">
			<path class="st11" d="M803.8,588.4c6.4-1.5,13.4,0.5,18.2,5c0.7,0.6,1.4,1.4,1.4,2.4c0,1.9-2.4,2.7-4.2,2.8
				c-4,0.3-8,0.2-11.9-0.5c-1.7-0.3-3.4-0.6-4.8-1.5c-1.4-0.9-2.6-2.4-2.6-4.1c0-1.4,0.7-2.8,1.9-3.5c1.2-0.7,2.7-0.8,3.9-0.1"/>
		</g>
		<g>
			<path class="st9" d="M827.4,581.8c-6.3-9.2-14.8-12.5-24.6-5.7c-1.3,0.9-3-1.2-1.8-2.3c8.5-7.5,25.2-4.8,27.9,7.3
				C829.2,582.1,827.9,582.6,827.4,581.8L827.4,581.8z"/>
		</g>
		<g>
			<path class="st9" d="M871.6,581.9c-0.8-5.3-7.1-8.6-12.1-8.8c-5.9-0.2-11.3,3.3-13.8,8.6c-1,2,2,3.7,3,1.7
				c2.2-4.5,6.1-7.6,11.3-7.2c4.8,0.4,7,3.6,10.2,6.6C870.8,583.4,871.7,582.7,871.6,581.9L871.6,581.9z"/>
		</g>
		<g>
			<path class="st9" d="M818.8,611.9c3.7,6.4,12.5,12.7,20.2,8.9c0.8-0.4,0.4-1.7-0.5-1.7c-3.4-0.1-6.4,0.4-9.7-0.8
				c-3.6-1.3-7.1-3.6-9.1-7C819.4,610.7,818.5,611.2,818.8,611.9L818.8,611.9z"/>
		</g>
		<g class="st32">
			<path class="st26" d="M783.7,578c1.7,5.3,3.5,10.7,6.4,15.6c2.9,4.8,7,9.1,12.3,11.1c5.1,1.9,10.7,1.6,16.2,1.9
				c6.7,0.4,13.4,2,20.1,2.6c6.7,0.6,13.8,0.3,19.8-2.8c3.6-1.9,7.8-4.8,11.4-2.8c2.5,1.4,4,4.7,3.5,7.5c-3.8,21.6-7,33.5-22.6,40.4
				c-15.6,6.9-37.7,5.1-53.2-2.1c-6.1-2.8-12.1-6.8-14.6-13c-1.7-4.1-1.6-8.7-1.5-13.2c0.4-16.2,0.8-32.5,1.2-48.7"/>
		</g>
		<g>
			<path class="st9" d="M836.9,577.2c-1.2,4.8-0.9,9.9-1,14.9c-0.1,2.5-0.1,4.9-0.2,7.4c0,1.8,0,10.1-3.4,6.2c-1-1.1-2.9,0.3-2,1.6
				c2,2.9,5.9,4.8,7.4,0.6c1.4-4,0.5-10.2,0.6-14.4c0.2-5.3,0.8-10.8-0.2-16.1C838,576.6,837.1,576.7,836.9,577.2L836.9,577.2z"/>
		</g>
	</g>
	<path class="st33" d="M839.9,505.4c10.9,3.5,20.5,13.1,20.6,24.5l-79.7,34.2c-3.9-2.8-5.4-8.7-5.2-15.5
		c0.4-18.5,12.7-34.6,30.1-41.1C815.4,503.9,827.9,501.6,839.9,505.4z"/>
	<path class="st18" d="M780.7,564.2c0,0,94.8-64.9,112.9-44.8c13.1,14.6-15.6,38.9-15.6,38.9l-0.5-1.9c-3.1-11.4-14.4-18.8-26-16.4
		c-1.5,0.3-3,0.7-4.5,1.3C830.1,548,780.7,564.2,780.7,564.2z"/>
</g>
<g>
	<path class="st34" d="M573.8,805.3c1.1,1.4-8.7-106.7,44.6-116.4c45.5-8.2,107.6,5.7,107.6,5.7s39.7,0.4,39.7,110.7H573.8z"/>
	<g>
		<g>
			<path class="st35" d="M717.7,697.1c13.5-8.6,23-24.2,17.7-40.5c-1.2-3.8-3.1-6.9-5.6-10c-5.1-6.2-8.1-10.4-6.5-18.7
				c1.7-8.5,5.3-17.3-0.6-25c-1.7-2.3-6.1-1.1-5,2.1c2.9,8.5-0.9,16-1.8,24.5c-0.9,7.8,1.6,13.4,7,19c14.8,15.3,8.2,34.1-6.7,46.6
				C715.1,696,716.5,697.8,717.7,697.1L717.7,697.1z"/>
		</g>
		<path class="st35" d="M620.8,691.8c-5.4-1-10.9-2-16-4.4c-5-2.3-9.6-6.2-11.6-11.3c-4.1-10.3,2.9-21.4,4.7-32.4
			c2.5-15.1-4.9-30.1-5.3-45.3c-0.3-11.5,3.5-22.7,7.2-33.6c2.7-7.9,5.5-16.1,11.2-22.3c5.6-6,13.4-9.4,21.2-11.8
			c13.4-4,28.8-5,40.4,2.7c4.1,2.7,7.7,6.4,12.4,7.4c4.2,0.9,8.6-0.6,12.9,0.2c8.2,1.5,12.7,10.4,14,18.6c1.3,8.2,0.8,16.9,4.4,24.4
			c4.1,8.3,13.2,14.8,13,24.1c-0.3,11.2-14.2,17.8-16.2,28.9c-1.1,6.2,1.9,12.4,5.2,17.7c3.4,5.3,7.3,10.5,8.5,16.7
			c1.7,8.9-2.9,18.2-10,23.8c-7.1,5.6-16.3,7.9-25.4,8.4"/>
		<path class="st6" d="M609.6,562.4c-3.7,30.8-8,101.6,30.7,99.5v24l-23.4,12c0,0,10.7,30.7,61.4,24.7c50.7-6,49.4-27.4,49.4-27.4
			l-32-10l-0.7-58.1c0,0,15.1,1.1,14.7-18c-0.4-18-16.7-16-16.7-16l-1-32.3c-0.2-6.9-5.9-12.5-12.8-12.5h-53.8
			C617.3,548.4,610.5,554.4,609.6,562.4z"/>
		<g>
			<path class="st35" d="M649.1,586.1c3.8-0.1,7.2-2.7,11-3.6c4.9-1.2,9.6-0.5,14.5-1c1.3-0.1,1.6-1.9,0.3-2.4
				c-4.5-1.6-10.2-0.8-14.8,0.3c-3.8,0.9-9.4,2.2-11.5,5.8C648.3,585.6,648.6,586.1,649.1,586.1L649.1,586.1z"/>
		</g>
		<g>
			<g>
				<path class="st7" d="M675.5,590.7c-3.1-3.7-8.3-5.5-13.1-4.7c-4.8,0.9-9,4.4-10.6,9c3.8,1.3,7.7,2.6,11.7,2.4
					C667.6,597.3,674,594.5,675.5,590.7"/>
			</g>
			<path class="st36" d="M667.6,589c0.8,2.4,0.1,5.3-1.5,6.9c-1.7,1.6-4.2,1.7-6,0.3c-1.8-1.4-2.6-4.3-2-6.7c0,0,1.3-3.2,5.3-3.9
				C667.3,584.9,667.6,589,667.6,589z"/>
		</g>
		<g>
			<g>
				<path class="st7" d="M632.9,596.8c-1.8-4.3-5.8-7.2-10-7.4c-4.3-0.1-8.7,2.5-11.2,6.7c2.9,2.1,5.9,4.2,9.4,4.9
					c3.5,0.6,10.1-1,12.3-4.4"/>
			</g>
			<path class="st36" d="M626.5,593.3c0.1,2.5-1.2,5.3-3,6.5c-1.8,1.2-4,0.8-5.2-1c-1.2-1.8-1.2-4.8-0.1-7.1c0,0,1.9-2.9,5.5-2.7
				C627.3,589.2,626.5,593.3,626.5,593.3z"/>
		</g>
		<g>
			<path class="st35" d="M610.2,587.9c3.9-1.9,8.2-3.1,12.6-3c4.1,0.2,7.4,1.8,11.2,3.1c1,0.3,1.8-1.1,1-1.8
				c-6.8-5.8-18.7-4.5-25.5,0.5C608.8,587.2,609.4,588.2,610.2,587.9L610.2,587.9z"/>
		</g>
		<g>
			<path class="st9" d="M695.5,598.3c-4.3,1.6-6.1,7.8-5.9,12c0.1,1.4,2.1,1.8,2.5,0.3c0.8-3,5.3-4,6.1-0.4c0.6,3-2.1,3.4-4,3.9
				c-0.8,0.2-1.2,1.6-0.3,2c4.7,2,8.6-4.1,6.2-8.1c-2.8-4.6-9.2-3-10.5,1.9c0.8,0.2,1.6,0.5,2.5,0.7c0.5-2.3,1-4.4,2-6.5
				c0.8-1.6,1.9-3.1,2.3-4.9C696.6,598.7,696.1,598.1,695.5,598.3L695.5,598.3z"/>
		</g>
		<path class="st35" d="M605.5,579c21.7-1.9,42.6-11.8,57.9-27.2c0.8,3.3,1.6,6.6,3.3,9.5c1.7,2.9,4.5,5.4,7.9,5.8
			c3.3,0.5,7.1-1.6,7.8-4.9c0.9,9.9,4.3,30.4,12.7,30.9c1-11.1-0.5-25.6,0-36.7c0.1-2.3,0.1-4.9-1.6-6.5c-1-1-2.4-1.4-3.7-1.7
			c-17.6-4.4-36-4-54.2-3.5c-6.3,0.2-13,0.4-18.4,3.7c-4.9,3-8.1,8.1-9.9,13.5c-1.8,5.4-2.3,11.2-2.8,16.9"/>
		<g class="st10">
			<path class="st11" d="M673.9,602.1c-6-1.4-12.6,0.4-17,4.6c-0.6,0.6-1.3,1.3-1.3,2.2c0,1.8,2.2,2.5,4,2.6
				c3.7,0.3,7.5,0.1,11.2-0.4c1.6-0.2,3.1-0.6,4.5-1.4s2.4-2.2,2.5-3.8c0-1.3-0.7-2.6-1.8-3.3c-1.1-0.7-2.6-0.7-3.7-0.1"/>
		</g>
		<g>
			<path class="st9" d="M641.8,591.6c-0.9,4.6-0.4,9.3-0.2,13.9c0.1,4.3-0.9,10.6,0.6,14.7c1.4,4,5.1,2.2,7-0.5
				c0.8-1.1-1-2.5-1.9-1.5c-3.2,3.7-3.2-4.1-3.2-5.8c0-2.3-0.1-4.6-0.2-6.9c-0.1-4.6,0.2-9.4-1-13.9
				C642.8,591.1,641.9,591.1,641.8,591.6L641.8,591.6z"/>
		</g>
		<g class="st10">
			<path class="st11" d="M650.9,629.9c1.4-1,1.5-3,2.7-4.2c1.2-1.2,3.4-1.4,4.1-2.9c0.4-0.8,0.3-1.5-0.3-2.2
				c-1.9-2.3-5.8,0.1-7.2,1.7c-1.6,1.7-3.6,5.3-1.5,7.3C649.2,630.1,650.2,630.4,650.9,629.9L650.9,629.9z"/>
		</g>
		<g class="st10">
			<path class="st11" d="M650.3,633.4c1.5-0.3,2.9-0.3,4.4-0.9c1.2-0.5,2.4-1.2,3.4-2c2.1-1.7,4.7-4.5,4.6-7.3
				c-0.1-2-2.8-3.6-4.3-1.8c-1.4,1.7-1.9,4-3.3,5.8c-1.3,1.6-3.4,3.6-5.5,4.1C648.3,631.6,648.9,633.7,650.3,633.4L650.3,633.4z"/>
		</g>
		<g>
			<path class="st9" d="M645.5,632.7c7.1-1.6,15.1-8,17.2-15.1c0.3-1.2-1.2-1.7-1.9-0.8c-2.1,3.1-3.7,6.2-6.6,8.7
				c-2.8,2.5-6,4-9.4,5.5C643.7,631.4,644.5,633,645.5,632.7L645.5,632.7z"/>
		</g>
		<g>
			<path class="st9" d="M651.9,595.9c5.9-8.7,13.9-11.7,23-5.4c1.3,0.9,2.8-1.1,1.6-2.1c-8-7.1-23.6-4.5-26.2,6.9
				C650.2,596.2,651.4,596.7,651.9,595.9L651.9,595.9z"/>
		</g>
		<g>
			<path class="st9" d="M611.9,596.8c3-2.8,5-5.8,9.5-6.2c4.9-0.4,8.6,2.5,10.6,6.7c0.9,1.9,3.7,0.2,2.8-1.6
				c-2.4-4.9-7.4-8.2-12.9-8c-4.6,0.2-10.6,3.3-11.3,8.3C610.4,596.8,611.2,597.4,611.9,596.8L611.9,596.8z"/>
		</g>
		<g>
			<path class="st35" d="M600.6,569.5c-5.3,15.8-15.6,29.6-17.8,46.4c-0.9,6.6-0.4,13.4,2.4,19.6c1.3,2.9,3.1,5.3,4.8,7.9
				c3.7,5.6,3.9,9.5,1.1,15.6c-5,10.6-5.6,22.3,2.8,31.5c8.2,9.2,23.1,11,32.8,3.1c1.8-1.5-0.1-4.9-2.4-4.1
				c-13.9,5.6-31.9,1-31.9-16.9c0-10.5,9.8-17.6,4.3-28.4c-2.9-5.8-7.4-10-8.6-16.7c-1.3-6.5-0.2-13.4,1.6-19.7
				c3.7-13,10.5-24.4,12.4-37.9C602.1,569,600.9,568.6,600.6,569.5L600.6,569.5z"/>
		</g>
		<g>
			<path class="st37" d="M684.4,551.4c9,0.2,17.9,6.6,21.1,15c2.8,7.3,1.8,15.3,3.5,22.8c1.2,5.3,3.8,9.6,8,13.1
				c3.7,3.1,9.5,5.9,9,11.9c-0.5,6.3-4.9,10.9-8.8,15.4c-1.4,1.7,0.8,4,2.4,2.4c6.1-5.9,12.2-14,8.6-22.9c-1.4-3.5-4.3-5.7-7-8.1
				c-5-4.4-7.6-8.4-8.9-14.9c-1.9-9.2-1-19.1-7.3-26.8c-5.4-6.6-12.3-8.8-20.5-8.9C683.7,550.4,683.7,551.4,684.4,551.4L684.4,551.4
				z"/>
		</g>
		<g>
			<path class="st37" d="M689.2,554.5c10.7,9.4,14,20.6,14.2,34.4c0,1.2,1.8,1.2,1.9,0c1.1-12.9-6.3-26.5-15.8-34.7
				C689.3,554,689,554.3,689.2,554.5L689.2,554.5z"/>
		</g>
		<g>
			<path class="st37" d="M664,541.1c-10.9,15.4-27.3,23.2-44.5,29.4c-12.8,4.7-19.6,12.8-17.7,27c1.2,8.9,5.8,17.1,6.4,26.2
				c0.8,10.7-5.2,17.1-11.1,25c-7.6,10.2-9.3,23.8,1.1,32.8c1,0.9,2.3-0.4,1.5-1.5c-5.8-7.3-7.6-16.8-3.1-25.2
				c3.4-6.2,8.8-11,11.8-17.4c6.3-13.4-2.2-26.9-3.6-40.4c-1.2-10.9,2.9-18.7,13.3-22.8c5.9-2.3,12-4.2,17.8-6.9
				c12.1-5.7,22.8-13.8,29.2-25.7C665.5,541,664.5,540.4,664,541.1L664,541.1z"/>
		</g>
		<g>
			<path class="st37" d="M608.9,689.5c0.2,0,0.2-0.4,0-0.4C608.7,689.1,608.7,689.5,608.9,689.5L608.9,689.5z"/>
		</g>
	</g>
</g>
<g>
	<path class="st38" d="M879.4,805.3c1.1,1.4-7.8-108,54.6-116.4c32.3-4.3,76.3-2.2,97.3,0.9c8.7,1.3,21.4,16.9,21.4,16.9
		s0.2,87,0,98.5L879.4,805.3z"/>
	<g>
		<path class="st9" d="M1001.8,589.6c3-8.2,9.1-20.6,10.5-29.3c1.4-8.6,1.2-17.8-2.2-25.8c-5-11.9-16.6-20.4-29.2-23.3
			c-12.6-3-26-0.8-38,4c-7.6,3.1-14.9,7.4-20.6,13.4c-5.7,6-8.5,12.8-9.2,21c0,0,25-20.3,52.4,0.5
			C993.2,570.8,1001.8,589.6,1001.8,589.6z"/>
		<path class="st15" d="M913.2,556.9c-3.7,30.8-8,101.6,30.7,99.5v24l-23.4,12c0,0,10.7,30.7,61.4,24.7c50.7-6,49.4-27.4,49.4-27.4
			l-32-10l-0.7-58.1c0,0,15.1,1.1,14.7-18c-0.4-18-16.7-16-16.7-16l-1.3-44.7h-66.3C920.9,543,914.1,549,913.2,556.9z"/>
		<g>
			<path class="st9" d="M943.7,589.9c-1,4.8-1.4,9.7-1.8,14.5c-0.4,3.9-1.5,9-0.3,12.9c1.2,3.9,5.4,6.5,8.9,3.6
				c0.8-0.7-0.1-2.3-1.1-1.9c-7.7,2.8-5-11.7-4.8-14.6c0.3-4.8,0.7-9.6,0.4-14.4C944.9,589.4,943.8,589.1,943.7,589.9L943.7,589.9z"
				/>
		</g>
		<g>
			<path class="st9" d="M948.5,629.3c9.1,1.1,19-5.4,19.5-15.3c0.1-1.2-1.9-1.5-2.2-0.3c-0.9,3.9-1.8,7.3-4.9,10.1
				c-3.2,3-8,4.6-12.4,4.4C947.9,628.2,947.9,629.2,948.5,629.3L948.5,629.3z"/>
		</g>
		<path class="st11" d="M973.7,597.8c-3.7,0.1-7.3,1.6-10,4c-0.8,0.7-1.5,1.7-1.4,2.7c0.2,1.1,1.3,1.8,2.4,2.2
			c4.1,1.6,8.8,1.5,12.8-0.1c1.9-0.7,3.8-2.1,3.8-4.1c0-1.5-1.2-2.9-2.6-3.5c-1.4-0.6-3-0.7-4.5-0.7"/>
		<g>
			<path class="st9" d="M950.5,577.4c3.6-0.1,6.7-2.7,10.2-3.6c4.5-1.2,8.8-0.5,13.3-1c1.4-0.2,1.6-1.9,0.3-2.4
				c-4.1-1.6-9.5-0.8-13.7,0.3c-3.6,0.9-8.9,2.3-10.6,5.8C949.8,576.9,950.1,577.4,950.5,577.4L950.5,577.4z"/>
		</g>
		<g>
			<g>
				<path class="st7" d="M978.4,585.1c-3.1-3.7-8.3-5.5-13.1-4.7c-4.8,0.9-9,4.4-10.6,9c3.8,1.3,7.7,2.6,11.7,2.4
					c4-0.2,8.2-2.3,9.7-6"/>
				<g>
					<path class="st9" d="M954,589.6c4.1-1.9,4.9-6.9,10-8c4.7-1,10.2,2.4,13.9,4.9c1.4,1,3.1-1.2,1.8-2.3
						c-3.9-3.5-10.4-6.7-15.7-5.8c-4.5,0.7-11.4,5.5-10.8,10.7C953.3,589.5,953.6,589.8,954,589.6L954,589.6z"/>
				</g>
			</g>
			<path class="st9" d="M970.4,583.3c0.8,2.4,0.1,5.3-1.5,6.9c-1.7,1.6-4.2,1.7-6,0.3c-1.8-1.4-2.6-4.3-2-6.7c0,0,1.3-3.2,5.3-3.9
				C970.1,579.2,970.4,583.3,970.4,583.3z"/>
		</g>
		<g>
			<g>
				<path class="st7" d="M935.2,591.1c-1.8-4.3-5.8-7.2-10-7.4c-4.3-0.1-8.7,2.5-11.2,6.7c2.9,2.1,5.9,4.2,9.4,4.9
					c3.5,0.6,7.5-0.6,9.8-3.9"/>
				<g>
					<path class="st9" d="M913.4,590.5c3.6-0.9,5.2-4.9,9.3-5.6c4.7-0.7,8.8,3.7,11.5,7.2c1.1,1.5,3.5,0.2,2.6-1.5
						c-2.5-4.3-7.5-9.2-12.8-9.2c-4.4,0.1-10.9,3.8-11.2,8.5C912.7,590.3,913,590.6,913.4,590.5L913.4,590.5z"/>
				</g>
			</g>
			<path class="st9" d="M928.8,587.7c0.1,2.5-1.2,5.3-3,6.5c-1.8,1.2-4,0.8-5.2-1c-1.2-1.8-1.2-4.8-0.1-7.1c0,0,1.9-2.9,5.5-2.7
				C929.6,583.6,928.8,587.7,928.8,587.7z"/>
		</g>
		<g>
			<path class="st9" d="M913.6,580.7c3.9-1.9,8.2-3.1,12.6-3c4.1,0.2,7.4,1.8,11.2,3.1c1,0.3,1.8-1.1,1-1.8
				c-6.8-5.8-18.7-4.5-25.5,0.5C912.3,580,912.9,581.1,913.6,580.7L913.6,580.7z"/>
		</g>
		<g>
			<path class="st9" d="M1002.1,592.8c-4.3,1.6-6.1,7.8-5.9,12c0.1,1.4,2.1,1.8,2.5,0.3c0.8-3,5.3-4,6.1-0.4c0.6,3-2.1,3.4-4,3.9
				c-0.8,0.2-1.2,1.6-0.3,2c4.7,2,8.6-4.1,6.2-8.1c-2.8-4.6-9.2-3-10.5,1.9c0.8,0.2,1.6,0.5,2.4,0.7c0.5-2.3,1-4.4,2-6.5
				c0.8-1.6,1.9-3.1,2.3-4.9C1003.1,593.2,1002.6,592.6,1002.1,592.8L1002.1,592.8z"/>
		</g>
		<path class="st9" d="M996.6,587.7c0,0-26.3-53-72.3-44c0,0-10.1,3-11.1,13.3c0,0-2.8-22,8-25.7c10.8-3.7,78-4.1,80.6,11.8
			c2.7,15.9,0,46.6,0,46.6L996.6,587.7z"/>
		<g>
			<path class="st39" d="M1001.6,586.9c1.3-14.2-4.6-29.8-11.4-42c-7.2-12.7-17.6-24-30.1-31.5c-1.4-0.9-2.6,1.3-1.3,2.2
				c12,8.6,21.9,19,29.1,32c7.1,12.8,9,25.6,11.7,39.7C999.8,588.4,1001.5,588,1001.6,586.9L1001.6,586.9z"/>
		</g>
		<g>
			<path class="st39" d="M947.8,544.9c8-6.6,17.7-11,28-12.1c1.5-0.2,1.5-2.6,0-2.4c-11.2,1.3-20.9,5.7-28.9,13.7
				C946.4,544.6,947.2,545.4,947.8,544.9L947.8,544.9z"/>
		</g>
		<g>
			<path class="st39" d="M991.6,551.8c7.2-9.7,8.2-24,3.9-35.2c-0.7-1.8-3.6-1.1-3,0.8c3.9,12,2.6,22-2.5,33.4
				C989.5,551.9,990.9,552.8,991.6,551.8L991.6,551.8z"/>
		</g>
		<path class="st40" d="M927.8,531.5c8,1.1,17.7-1,24.7-5c3.3-1.8,6.5-4.4,7.5-8.1c1.6-5.6-2.9-11.6-8.5-13.2
			c-5.6-1.6-11.6,0.2-16.7,3.1c-3.9,2.3-7.5,5.2-10.4,8.6c-1.6,1.8-3.1,3.9-3.2,6.3C920.9,527,924.2,530.3,927.8,531.5"/>
		<g>
			<path class="st41" d="M1001,612.6c-11,6.9-7.7,26.8,6.7,25.7c6-0.5,11.1-5.2,12.5-11c1.5-6.1-1.5-11.8-6.3-15.3
				c-1.3-1-2.9,1.1-1.7,2.2c3.2,2.9,5.7,6.1,5.3,10.7c-0.5,5.4-5,10.2-10.4,10.4c-5.6,0.3-9.7-3.9-10-9.3c-0.3-5,2.7-8.2,5.1-12.1
				C1002.7,613.1,1001.8,612.2,1001,612.6L1001,612.6z"/>
		</g>
	</g>
</g>
<g>
	<path class="st42" d="M405.9,805.3c1,1.3-1.3-106.7,48.5-112.1c44.1-4.8,103.1,5.5,103.1,5.5s34.2-5.9,36.9,106.7H405.9z"/>
	<g>
		<path class="st25" d="M565.2,560.1c3.7,31.1,8.1,102.7-31,100.6V685l24.7,13.6c0,0-11.9,29.6-63.2,23.5
			c-51.3-6.1-51.3-26.3-51.3-26.3l33.7-11.5l0.7-58.7c0,0-15.3,1.1-14.8-18.2c0.4-18.2,16.9-16.2,16.9-16.2
			c-2.7-11.8-3.4-27.8-2.9-46.8c16.4-3.9,40.8-4.4,68.8-3.3C554.9,541.1,564.3,552,565.2,560.1z"/>
		<path class="st11" d="M504.1,601.4c3.7,0.1,7.4,1.6,10.1,4.1c0.8,0.7,1.6,1.7,1.4,2.8c-0.2,1.1-1.4,1.8-2.4,2.2
			c-4.1,1.6-8.9,1.5-13-0.1c-1.9-0.7-3.8-2.2-3.9-4.2c0-1.6,1.2-2.9,2.6-3.5c1.4-0.6,3-0.7,4.6-0.7"/>
		<g>
			<g>
				<path class="st7" d="M499.3,588.6c3.2-3.7,8.4-5.6,13.2-4.7c4.8,0.9,9.1,4.5,10.7,9.1c-3.8,1.4-7.8,2.7-11.9,2.5
					C507.4,595.2,500.9,592.3,499.3,588.6"/>
				<g>
					<path class="st9" d="M524.5,592.6c-0.7-5.3-6.5-9.9-11.7-10.3c-4.9-0.4-10.9,2.7-14.5,5.8c-0.8,0.7,0.3,2.1,1.1,1.5
						c3.5-2.5,8.1-5.1,12.4-5.1c6.5,0,7.9,4.9,12.1,8.4C524.2,593.1,524.6,592.9,524.5,592.6L524.5,592.6z"/>
				</g>
			</g>
			<path class="st9" d="M505.7,586.8c-0.8,2.4-0.1,5.3,1.6,6.9c1.7,1.6,4.3,1.7,6.1,0.3c1.8-1.4,2.7-4.3,2-6.8c0,0-1.3-3.2-5.4-3.9
				C506,582.6,505.7,586.8,505.7,586.8z"/>
		</g>
		<g>
			<g>
				<path class="st7" d="M543,594.7c1.8-4.4,5.7-7.3,9.9-7.4c4.3-0.1,8.7,2.6,11.2,6.8c-2.9,2.1-5.9,4.2-9.3,4.9
					c-3.5,0.6-8.8-0.1-11.1-3.5"/>
				<g>
					<path class="st9" d="M565.1,593.5c-1.4-4.5-7-8.2-11.6-7.9c-4.8,0.3-9.3,5-11.6,8.8c-0.6,1.1,0.9,1.9,1.6,0.9
						c2.3-3.2,6.5-7.8,10.7-7.8c4.8,0,6.8,4.3,10.4,6.3C564.9,594.1,565.2,593.8,565.1,593.5L565.1,593.5z"/>
				</g>
			</g>
			<path class="st9" d="M547.1,591.2c-0.1,2.5,1.2,5.3,3,6.6c1.8,1.2,4.1,0.8,5.3-1c1.2-1.8,1.2-4.8,0.1-7.1c0,0-1.7-4.1-5.5-2.7
				C546.6,588.1,547.1,591.2,547.1,591.2z"/>
		</g>
		<g>
			<path class="st9" d="M474.4,597.3c0.5,1.8,1.6,3.2,2.4,4.9c1,2.1,1.6,4.3,2,6.6c0.8-0.2,1.6-0.4,2.3-0.6
				c-1.2-4.7-7.3-6.6-10.2-2.3c-2.7,3.8,0.8,10.5,5.7,8.6c0.9-0.3,1.1-1.7,0-2c-2-0.5-4.7-1-4.1-4.1c0.8-3.7,5.5-2.7,6.3,0.4
				c0.4,1.3,2.4,1,2.4-0.3c0.1-4.2-1.6-10.3-5.9-12C474.8,596.2,474.3,596.8,474.4,597.3L474.4,597.3z"/>
		</g>
		<g class="st43">
			<path class="st9" d="M480.1,591c2.2,1.1,5.1,0.1,6.8-1.7c1.7-1.8,2.6-4.2,3.3-6.6c2.9-9.1,4.9-18.6,5.9-28.1
				c20.7-2.2,51.2,0.9,62.5-8.4c0,0-78.8-11.6-80.6-1.8C475.6,556.7,480.1,591,480.1,591z"/>
		</g>
		<path class="st9" d="M480.1,544.6c27.4-7.8,57.7,8.9,84.7,0c4.1-1.4,8.3-3.5,10.8-7c2.6-3.5,3.1-8.8,0.3-12.2
			c-3.9-4.7-11.2-3.4-17-1.7c4.6-0.9,7-6.9,5.2-11.2c-1.9-4.3-6.9-6.7-11.6-6.5c-4.7,0.3-9.1,2.7-12.6,5.8
			c-3.6,3.1-6.5,6.8-9.7,10.3c-3.2,3.4-6.9,6.7-11.3,8.4c-5.3,2-11.1,1.7-16.7,1.3c-5.6-0.3-11.5-0.6-16.7,1.7
			c-5.2,2.3-9.3,7.8-8.2,13.3"/>
		<g>
			<path class="st44" d="M470.9,624.6c-0.9,1.7,0.9,3.7,2.3,4.5c1.7,1,3.8,1.2,5.6,0.3c1.7-0.8,3-2.6,3.5-4.5
				c0.4-1.6,0.4-4.7-1.7-5.1c-0.6-0.1-1.2,0.2-1.3,0.8c-0.3,1.2,0.5,2,0.6,3.1c0.1,1.4-0.6,2.9-2,3.5c-1.2,0.5-2.6,0.1-3.6-0.5
				c-1-0.6-1.4-1.8-2.4-2.4C471.6,624.2,471.1,624.3,470.9,624.6L470.9,624.6z"/>
		</g>
		<g>
			<path class="st9" d="M533,588c0.2,6.1,1.2,12.2,2.1,18.2c0.5,3.2,1.1,6.4,1.5,9.6c1,6.9,1.4,6.5-3.7,4.6
				c-1.8-0.7-2.7,2.4-0.8,2.9c2.1,0.6,4.2,1.1,6.3,1.6c0.9,0.2,1.5-0.5,1.4-1.4c-2.1-11.8-2.9-24-6-35.7
				C533.7,587.4,533,587.5,533,588L533,588z"/>
		</g>
		<g>
			<path class="st9" d="M516.9,631.9c7.2,2.7,14.9,5.1,22.6,5.9c5.6,0.6,6.3-8,1.3-9.5c-7.3-2.2-15.5-2.7-23-2.9
				C513.8,625.4,513.6,630.7,516.9,631.9L516.9,631.9z"/>
		</g>
		<g>
			<path class="st9" d="M500.3,581.4c4.3-0.2,8.6-0.1,12.9,0.3c3.9,0.4,7.5,1.3,11.1-0.3c2.4-1.1,1.8-4.3,0-5.6
				c-6.1-4.4-18.1-0.1-24.5,1.9C497.9,578.4,498.1,581.5,500.3,581.4L500.3,581.4z"/>
		</g>
		<g>
			<path class="st9" d="M541,583.2c6.1-1,12.4-1.1,18.6-0.6c4.7,0.4,4.8-7.1,0-7.4c-6.9-0.4-13.5,0.7-19.9,3.3
				C536.8,579.7,537.9,583.7,541,583.2L541,583.2z"/>
		</g>
		<g>
			<path class="st9" d="M521.8,636.8c0.7,1.5,2.1,2.4,3.7,2.9c1.3,0.4,3.6,0.9,4.5-0.3c0.4-0.5,0.3-1-0.2-1.3
				c-0.9-0.7-2.4-0.3-3.5-0.6c-1.3-0.3-2.5-1-3.7-1.5C522.1,635.7,521.5,636.3,521.8,636.8L521.8,636.8z"/>
		</g>
	</g>
</g>
<g>
	<path class="st45" d="M249,805.3c1.1,1.4,5.6-110.3,53.9-116.4c45.9-5.8,107.6,5.7,107.6,5.7s44.6,4.2,39.3,110.7H249z"/>
	<g>
		<g>
			<path class="st46" d="M304.7,707.6c-18.1-21.4-27.1-49.6-28.1-77.7c-0.7-21.7,3.4-44,15.2-62.2c11.8-18.2,32-31.7,53.7-32
				c19.4-0.3,38.3,9.9,50.4,25.1c12.1,15.2,17.9,34.8,18.2,54.3c0.2,11.2-1.2,22.9,2.9,33.3c2.3,5.8,6.2,10.8,8.1,16.8
				c2.2,7.2,1.2,15.1-1.4,22.3c-8.9,24.4-35.1,39.9-61,40.4C336.7,728.2,323.2,725.7,304.7,707.6"/>
			<path class="st15" d="M300.7,569.5c-3.7,30.8-8,101.6,30.7,99.5v24l-23.4,12c0,0,10.7,30.7,61.4,24.7c50.7-6,49.4-27.4,49.4-27.4
				l-32-10l-0.7-58.1c0,0,15.1,1.1,14.7-18c-0.4-18-16.7-16-16.7-16l-1-32.3c-0.2-6.9-5.9-12.5-12.8-12.5h-53.8
				C308.5,555.6,301.7,561.6,300.7,569.5z"/>
			<g>
				<path class="st47" d="M340.2,593.2c3.8-0.1,7.2-2.7,11-3.6c4.9-1.2,9.6-0.5,14.5-1c1.3-0.1,1.6-1.9,0.3-2.4
					c-4.5-1.6-10.2-0.8-14.8,0.3c-3.8,0.9-9.4,2.2-11.5,5.8C339.5,592.7,339.8,593.2,340.2,593.2L340.2,593.2z"/>
			</g>
			<g>
				<g>
					<path class="st7" d="M366.7,597.9c-3.1-3.7-8.3-5.5-13.1-4.7c-4.8,0.9-9,4.4-10.6,9c3.8,1.3,7.7,2.6,11.7,2.4
						C358.7,604.4,365.1,601.6,366.7,597.9"/>
				</g>
				<path class="st47" d="M361.2,596.1c0.8,2.4,0.1,5.3-1.5,6.9c-1.7,1.6-4.2,1.7-6,0.3c-1.8-1.4-2.6-4.3-2-6.7c0,0,1.3-3.2,5.3-3.9
					C360.9,592,361.2,596.1,361.2,596.1z"/>
			</g>
			<g>
				<g>
					<path class="st7" d="M324,603.9c-1.8-4.3-5.8-7.2-10-7.4c-4.3-0.1-8.7,2.5-11.2,6.7c2.9,2.1,5.9,4.2,9.4,4.9
						c3.5,0.6,10.1-1,12.3-4.4"/>
				</g>
				<path class="st47" d="M320.3,600.5c0.1,2.5-1.2,5.3-3,6.5c-1.8,1.2-4,0.8-5.2-1c-1.2-1.8-1.2-4.8-0.1-7.1c0,0,1.9-2.9,5.5-2.7
					C321,596.3,320.3,600.5,320.3,600.5z"/>
			</g>
			<g>
				<path class="st47" d="M301.3,595c3.9-1.9,8.2-3.1,12.6-3c4.1,0.2,7.4,1.8,11.2,3.1c1,0.3,1.8-1.1,1-1.8
					c-6.8-5.8-18.7-4.5-25.5,0.5C299.9,594.3,300.5,595.4,301.3,595L301.3,595z"/>
			</g>
			<g>
				<path class="st9" d="M386.7,605.4c-4.3,1.6-6.1,7.8-5.9,12c0.1,1.4,2.1,1.8,2.5,0.3c0.8-3,5.3-4,6.1-0.4c0.6,3-2.1,3.4-4,3.9
					c-0.8,0.2-1.2,1.6-0.3,2c4.7,2,8.6-4.1,6.2-8.1c-2.8-4.6-9.2-3-10.5,1.9c0.8,0.2,1.6,0.5,2.4,0.7c0.5-2.3,1-4.4,2-6.5
					c0.8-1.6,1.9-3.1,2.3-4.9C387.7,605.8,387.2,605.2,386.7,605.4L386.7,605.4z"/>
			</g>
			<g class="st48">
				<path class="st11" d="M368.7,611.2c-6-1.4-12.6,0.4-17,4.6c-0.6,0.6-1.3,1.3-1.3,2.2c0,1.8,2.2,2.5,4,2.6
					c3.7,0.3,7.5,0.1,11.2-0.4c1.6-0.2,3.1-0.6,4.5-1.4c1.3-0.8,2.4-2.2,2.5-3.8c0-1.3-0.7-2.6-1.8-3.3c-1.1-0.7-2.6-0.7-3.7-0.1"/>
			</g>
			<g>
				<path class="st9" d="M333,598.8c-0.9,4.6-0.4,9.3-0.2,13.9c0.1,4.3-0.9,10.6,0.6,14.7c1.4,4,5.1,2.2,7-0.5
					c0.8-1.1-1-2.5-1.9-1.5c-3.2,3.7-3.2-4.1-3.2-5.8c-0.1-2.3-0.1-4.6-0.2-6.9c-0.1-4.6,0.2-9.4-1-13.9
					C334,598.2,333.1,598.2,333,598.8L333,598.8z"/>
			</g>
			<g>
				<path class="st9" d="M343,603c5.9-8.7,13.9-11.7,23-5.4c1.3,0.9,2.8-1.1,1.6-2.1c-8-7.1-23.6-4.5-26.2,6.9
					C341.3,603.3,342.5,603.8,343,603L343,603z"/>
			</g>
			<g>
				<path class="st9" d="M303,604c3-2.8,5-5.8,9.5-6.2c4.9-0.4,8.6,2.5,10.6,6.7c0.9,1.9,3.7,0.2,2.8-1.6c-2.4-4.9-7.4-8.2-12.9-8
					c-4.6,0.2-10.6,3.3-11.3,8.3C301.6,603.9,302.4,604.5,303,604L303,604z"/>
			</g>
			<g>
				<path class="st37" d="M300.1,696.6c0.2,0,0.2-0.4,0-0.4C299.8,696.2,299.8,696.6,300.1,696.6L300.1,696.6z"/>
			</g>
			<path class="st46" d="M331.4,669c0,0,42.8,3.4,54.7-34.7c0,0,10.5,0.8,13.7-9.9c0,0,31.6,45.1,22,78.9
				c-6.5,23.2-77.2,44-108.4,11.9l-13.3-22.5L331.4,669z"/>
			<path class="st46" d="M298.4,589.3c0,0,13-33.7,41.2-33.7s43.1,16.3,44.5,44.7l15-1.8c0,0,1.2-48.7-28.3-49
				c-29.4-0.3-60.8,3.4-60.8,3.4l-14.6,13.2L298.4,589.3z"/>
			<g>
				<path class="st9" d="M335.8,640.8c7.7-0.4,14.7-4.7,18.7-11.3c0.8-1.4-1.3-2.6-2.1-1.2c-3.9,6-9.8,9.5-16.8,10.5
					C334.4,638.9,334.6,640.8,335.8,640.8L335.8,640.8z"/>
			</g>
		</g>
		<g>
			<path class="st49" d="M294.9,635c1.7,26.5,13.4,58.6,44.7,59.9c13.4,0.6,26.4-5.2,36-14.2c9.3-8.8,18.9-23.1,19.9-36.2
				c0.1-1.2-1.7-1.6-2.2-0.6c-6.2,11-8.9,22.3-17.8,31.8c-9,9.6-21.4,16-34.8,15.9c-30.1-0.2-40.2-32.4-43.7-56.9
				C296.8,633.5,294.8,633.8,294.9,635L294.9,635z"/>
		</g>
		<g>
			<path class="st49" d="M305.7,690.5c14.5,13.7,32.4,20.8,52.5,17.8c18.2-2.8,37.5-14.6,45.1-31.8c0.7-1.5-1.2-2.5-2.1-1.3
				c-10.8,14.3-23.5,25.6-41.8,29c-17.9,3.3-39-2.5-52.6-14.8C306,688.7,304.9,689.8,305.7,690.5L305.7,690.5z"/>
		</g>
		<g>
			<path class="st49" d="M298.9,588.2c3.9-11.5,9.9-22.7,18.1-31.7c8.3-9.1,18.4-13.3,28.6-19.6c1-0.6,0.3-2.1-0.8-1.9
				c-11.6,2.2-22.8,11.9-30.6,20.3c-8.7,9.2-14.6,20-17.4,32.4C296.5,589,298.5,589.6,298.9,588.2L298.9,588.2z"/>
		</g>
		<g>
			<path class="st49" d="M386.2,600.5c4.1-5.9,5.9-13.3,7.3-20.3c1.2-6.1,3.1-13.5,0.8-19.5c-0.6-1.5-2.8-1.7-3.3,0
				c-1.9,6.2-0.5,13.2-1.7,19.7c-1.2,6.6-3.9,12.6-5.5,19C383.4,601,385.4,601.7,386.2,600.5L386.2,600.5z"/>
		</g>
	</g>
</g>
<linearGradient id="SVGID_1_" gradientUnits="userSpaceOnUse" x1="560.4426" y1="795.2935" x2="560.4426" y2="738.1061">
	<stop  offset="0" style="stop-color:#FFFFFF"/>
	<stop  offset="1" style="stop-color:#FFFFFF;stop-opacity:0"/>
</linearGradient>
<rect x="68.1" y="733.9" class="st50" width="984.7" height="79.3"/>
</svg>
