<?xml version="1.0" standalone="no"?>
<!DOCTYPE svg PUBLIC "-//W3C//DTD SVG 20010904//EN"
 "http://www.w3.org/TR/2001/REC-SVG-20010904/DTD/svg10.dtd">
<svg version="1.0" xmlns="http://www.w3.org/2000/svg"
 width="1092.000000pt" height="1092.000000pt" viewBox="0 0 1092.000000 1092.000000"
 preserveAspectRatio="xMidYMid meet">
<metadata>
Created by potrace 1.11, written by Peter Selinger 2001-2013
</metadata>
<g transform="translate(0.000000,1092.000000) scale(0.100000,-0.100000)"
fill="#000000" stroke="none">
<path d="M5302 10138 c-6 -18 -9 -76 -8 -129 1 -102 12 -131 56 -142 38 -10
45 8 45 110 0 86 -3 103 -25 143 -32 57 -56 63 -68 18z"/>
<path d="M5494 10124 c-20 -33 -28 -64 -32 -114 -9 -131 18 -175 76 -125 26
23 27 27 27 127 0 166 -21 198 -71 112z"/>
<path d="M4433 9972 c-55 -53 -110 -153 -144 -257 -12 -38 -31 -83 -41 -100
-41 -68 -12 -117 52 -85 117 59 210 243 210 413 0 85 -15 91 -77 29z"/>
<path d="M6371 10011 c-18 -11 -16 -115 4 -193 35 -133 105 -236 195 -287 l39
-22 21 21 c23 23 21 45 -8 90 -9 14 -28 61 -43 106 -15 44 -40 103 -55 130
-54 98 -126 171 -153 155z"/>
<path d="M5225 9798 c-62 -32 -134 -144 -182 -283 -13 -38 -35 -92 -48 -118
-20 -40 -22 -52 -12 -68 6 -10 21 -19 32 -19 46 0 140 80 166 142 6 15 16 28
21 28 5 0 6 6 3 13 -3 6 2 2 11 -11 9 -12 29 -37 45 -55 16 -17 29 -35 29 -38
0 -3 -13 -23 -30 -44 -16 -21 -30 -43 -30 -50 0 -6 -11 -22 -25 -35 -13 -12
-22 -27 -19 -31 11 -18 53 -8 142 36 50 25 96 45 102 45 6 0 53 -20 104 -45
97 -46 146 -56 146 -31 0 8 -7 16 -15 19 -8 4 -24 25 -35 48 -12 23 -30 51
-41 62 -20 22 -25 47 -10 47 6 0 24 20 42 44 l32 45 37 -58 c20 -31 54 -71 76
-89 91 -75 161 -39 99 52 -13 20 -23 36 -20 36 8 0 -43 137 -75 199 -17 35
-56 89 -86 119 -47 46 -57 52 -70 41 -13 -11 -15 -28 -12 -86 3 -39 2 -72 -1
-71 -30 3 -58 -9 -110 -47 l-61 -45 -54 40 c-30 23 -71 46 -90 51 -20 6 -34
14 -31 19 10 16 9 114 -1 132 -7 13 -13 14 -29 6z"/>
<path d="M3390 9690 c-26 -26 -26 -74 2 -147 38 -103 139 -273 195 -328 17
-17 34 -41 38 -54 6 -21 8 -22 23 -7 14 14 14 29 -2 168 -26 215 -63 316 -134
367 -39 27 -95 28 -122 1z"/>
<path d="M7352 9672 c-56 -56 -89 -134 -105 -252 -25 -179 -30 -251 -18 -263
10 -10 15 -8 25 7 6 11 28 38 50 62 87 97 195 305 203 393 5 53 3 60 -18 75
-13 9 -40 16 -61 16 -31 0 -45 -7 -76 -38z"/>
<path d="M2394 9580 c-25 -10 -40 -56 -25 -74 6 -7 8 -15 6 -18 -10 -10 77
-80 129 -104 60 -28 76 -30 76 -9 0 21 -46 112 -78 153 -21 27 -71 64 -84 61
-2 0 -13 -4 -24 -9z"/>
<path d="M8451 9579 c-34 -13 -73 -59 -110 -128 -33 -63 -39 -91 -18 -91 18 0
129 56 152 77 58 51 72 110 33 137 -26 18 -25 18 -57 5z"/>
<path d="M2682 9434 c-43 -30 -16 -104 38 -104 51 0 66 55 25 95 -28 29 -33
30 -63 9z"/>
<path d="M8145 9425 c-43 -42 -28 -95 26 -95 53 0 79 75 37 104 -30 21 -35 20
-63 -9z"/>
<path d="M3997 9418 c-105 -22 -171 -92 -222 -238 -13 -36 -26 -82 -29 -104
-4 -21 -8 -41 -10 -45 -2 -3 -7 -31 -11 -61 -12 -106 -30 -193 -40 -196 -5 -1
-28 19 -50 45 -54 65 -110 101 -156 101 -83 0 -119 -97 -83 -221 42 -141 117
-244 328 -448 113 -108 146 -142 146 -148 0 -9 -130 0 -192 14 -35 7 -90 12
-123 11 l-60 -3 -30 60 c-16 33 -41 85 -54 115 -13 30 -37 83 -52 118 -16 35
-29 69 -29 76 0 8 -7 19 -15 26 -9 7 -13 15 -11 17 2 3 -9 27 -25 54 -16 28
-29 52 -29 55 0 9 -84 139 -92 142 -4 2 -8 10 -8 17 0 7 -3 15 -7 17 -5 2 -28
30 -53 63 -85 113 -192 228 -238 257 -32 20 -74 21 -113 4 -12 -5 -34 10 -79
53 -116 112 -196 105 -213 -20 -10 -81 60 -176 197 -264 53 -35 76 -56 76 -70
0 -29 46 -97 80 -120 23 -16 28 -26 28 -60 1 -79 38 -132 144 -202 37 -24 92
-71 122 -104 66 -73 216 -294 205 -303 -51 -39 -49 -39 -114 23 -33 32 -92 79
-130 104 -39 25 -88 59 -110 77 -111 89 -197 98 -255 28 -25 -30 -26 -30 -57
-15 -37 19 -126 27 -170 15 -70 -19 -85 -105 -32 -182 50 -73 143 -124 353
-196 80 -27 175 -63 211 -79 65 -30 65 -30 53 -58 -35 -80 -139 -193 -178
-193 -21 0 -169 153 -317 328 -136 160 -169 194 -213 221 -76 46 -125 14 -95
-61 11 -27 -7 -22 -41 11 -34 33 -204 154 -321 229 -154 98 -247 132 -346 128
-102 -5 -150 -50 -152 -143 -3 -97 37 -153 177 -246 98 -65 273 -153 451 -227
70 -29 127 -56 127 -61 0 -5 -19 -13 -42 -19 -143 -37 -165 -68 -92 -128 l34
-28 -54 -17 c-134 -42 -74 -84 154 -108 94 -9 132 -23 112 -40 -26 -22 -122
-47 -167 -44 -109 8 -442 5 -479 -4 -21 -5 -45 -16 -53 -23 -22 -23 18 -64 80
-84 73 -23 282 -28 369 -9 41 9 76 11 90 6 22 -8 21 -9 -12 -26 -19 -10 -57
-32 -85 -51 -98 -64 -174 -84 -385 -99 -158 -12 -244 -37 -280 -82 -19 -24
-19 -27 -4 -44 9 -10 37 -26 63 -36 73 -28 414 -24 521 7 33 9 42 -3 13 -18
-10 -5 -79 -21 -153 -37 -234 -47 -372 -84 -430 -112 -59 -30 -69 -51 -32 -69
35 -18 36 -22 3 -38 -81 -42 -152 -137 -131 -176 19 -36 132 -44 260 -19 30 6
125 44 210 84 156 74 341 140 415 149 22 3 71 6 110 8 l69 3 2 -140 c2 -77 4
-152 7 -167 2 -16 1 -28 -2 -28 -3 0 -58 18 -121 41 -137 48 -307 88 -347 82
-15 -3 -40 -19 -55 -36 -27 -30 -28 -30 -78 -19 -71 16 -107 15 -141 -5 -36
-22 -44 -46 -28 -86 32 -83 87 -109 239 -115 83 -3 118 -8 126 -18 16 -20 78
-44 116 -44 26 -1 37 -8 53 -32 33 -52 77 -68 182 -68 76 0 93 -3 94 -15 4
-58 4 -59 -26 -61 -17 -2 -64 -5 -105 -7 -77 -5 -137 -24 -159 -51 -19 -23 2
-29 102 -28 49 1 94 -1 99 -4 14 -9 -47 -43 -85 -49 -18 -3 -80 -12 -139 -20
-174 -25 -221 -51 -153 -84 25 -12 45 -13 121 -3 50 6 106 18 125 25 56 24 65
9 18 -32 -72 -61 -134 -90 -234 -107 -46 -8 -122 -39 -147 -62 -65 -57 66 -76
231 -33 43 11 85 23 96 27 12 5 16 4 11 -4 -3 -6 -54 -29 -112 -52 -147 -56
-195 -79 -221 -103 -29 -26 -29 -37 -2 -37 19 0 16 -6 -20 -45 -32 -35 -41
-53 -39 -73 7 -62 130 -33 275 64 104 70 216 128 271 139 37 8 37 8 7 -97 -11
-39 -25 -68 -33 -68 -7 0 -16 -10 -21 -22 -5 -13 -17 -24 -30 -24 -11 -1 -34
-2 -49 -3 -16 0 -39 -11 -52 -23 -22 -21 -34 -22 -154 -24 -139 -1 -190 -7
-273 -30 -49 -13 -89 -47 -77 -65 2 -4 -20 -15 -50 -23 -84 -25 -104 -75 -45
-110 39 -23 110 -16 173 18 32 17 48 21 61 13 12 -6 31 -5 57 2 31 10 43 10
54 0 23 -19 73 -13 138 16 39 17 85 28 139 32 l80 6 -7 -34 c-4 -19 -9 -45
-12 -59 -11 -64 -15 -71 -32 -66 -40 12 -194 29 -277 30 -176 3 -363 -32 -397
-74 -10 -12 -15 -26 -12 -31 5 -9 -24 -24 -67 -33 -32 -7 -79 -43 -79 -61 0
-8 11 -26 24 -42 20 -23 32 -28 72 -29 44 -1 108 18 157 46 10 6 33 8 52 4 18
-3 49 -1 67 5 28 9 40 8 68 -5 36 -18 43 -17 175 33 47 18 83 23 180 27 l39 1
2 -92 2 -92 -42 -6 c-63 -10 -102 -24 -211 -75 -109 -51 -132 -75 -121 -127 5
-23 1 -34 -20 -53 -31 -30 -54 -71 -54 -99 0 -31 53 -54 106 -46 24 3 44 3 44
-1 0 -14 -107 -105 -190 -161 -87 -60 -112 -83 -155 -144 -35 -49 -41 -85 -17
-98 20 -11 69 -6 87 8 5 5 20 12 31 15 17 5 22 3 20 -11 -3 -48 63 -1 169 120
95 108 126 139 132 133 3 -3 -6 -20 -21 -38 -115 -143 -183 -318 -116 -301 30
8 90 71 143 149 63 96 117 142 204 175 32 12 29 0 -11 -45 -80 -93 -138 -248
-99 -263 10 -4 21 1 30 13 7 10 20 27 28 37 8 9 15 21 15 26 0 5 3 11 8 13 6
3 23 32 95 170 24 48 76 93 90 79 7 -7 7 -14 0 -23 -5 -7 -21 -42 -36 -78 -42
-107 -28 -130 37 -58 33 36 72 103 69 118 -1 3 6 16 16 29 l18 23 21 -53 c32
-78 49 -172 67 -353 3 -33 10 -77 15 -100 5 -22 7 -42 5 -44 -1 -2 -41 10 -86
26 -128 44 -245 41 -305 -9 -19 -16 43 -79 114 -117 67 -36 203 -77 285 -86
71 -9 84 -13 91 -32 6 -16 -10 -15 -119 6 -27 5 -64 12 -82 15 -18 3 -42 9
-55 14 -13 5 -26 9 -31 9 -24 3 -86 15 -112 23 -55 15 -168 40 -209 45 -23 3
-55 9 -71 13 -35 9 -227 7 -270 -3 -53 -13 -128 -60 -156 -99 -21 -29 -26 -46
-23 -74 5 -36 58 -110 81 -112 6 -1 13 -5 15 -10 6 -16 173 -88 256 -110 178
-47 466 -8 632 86 25 14 65 37 90 51 109 62 124 65 167 28 15 -13 63 -48 106
-79 42 -31 74 -58 70 -60 -5 -2 -35 -9 -68 -15 -33 -7 -98 -19 -145 -28 -110
-21 -244 -69 -347 -125 -107 -57 -132 -80 -129 -114 3 -22 -6 -33 -50 -66 -44
-32 -54 -45 -54 -69 0 -34 31 -60 71 -60 34 0 98 36 146 81 25 23 52 38 77 42
21 3 49 16 62 28 19 18 28 20 46 12 33 -14 76 3 134 55 56 49 153 97 271 136
46 15 85 32 88 37 9 14 31 11 56 -10 l23 -18 -55 -18 c-93 -30 -143 -65 -281
-196 -51 -49 -62 -86 -34 -124 12 -16 10 -25 -11 -64 -40 -75 -14 -139 52
-126 69 13 100 46 234 250 62 94 153 195 176 195 23 0 116 -134 114 -165 0 -5
-32 -33 -72 -62 -135 -99 -231 -193 -307 -303 l-73 -106 -96 -47 c-53 -26
-141 -58 -196 -73 -107 -27 -168 -52 -200 -81 -60 -54 -80 -108 -52 -144 30
-39 88 -54 205 -54 98 0 112 -2 112 -17 0 -25 28 -48 58 -48 48 0 145 55 269
154 106 84 127 97 155 94 l32 -3 -35 -24 c-68 -46 -166 -203 -163 -261 6 -138
134 -162 245 -46 22 22 39 44 39 48 0 4 8 17 18 27 9 10 26 30 38 44 11 14 39
34 62 46 36 18 71 26 210 46 52 8 49 -16 -10 -77 -85 -86 -112 -199 -65 -268
29 -44 79 -52 109 -18 35 40 64 90 108 191 24 53 45 97 48 97 17 0 110 -63
107 -73 -12 -36 -12 -84 0 -114 11 -26 20 -33 43 -33 28 0 106 43 130 72 13
16 9 17 199 -27 20 -5 14 -16 -70 -143 -51 -76 -94 -145 -95 -153 -15 -62 -10
-89 18 -89 37 0 115 104 200 269 31 58 60 105 65 104 6 0 62 -4 125 -8 63 -4
116 -8 116 -8 6 -7 -42 -160 -65 -211 -27 -61 -41 -78 -115 -144 -35 -31 -40
-33 -67 -22 -33 14 -54 9 -68 -18 -8 -16 -6 -26 10 -46 11 -14 18 -30 14 -35
-3 -5 -8 -27 -11 -49 -5 -34 -2 -42 22 -61 15 -11 36 -21 48 -21 33 0 106 50
151 103 42 49 60 59 51 30 -89 -318 -94 -361 -56 -426 22 -37 26 -39 55 -39
38 0 48 5 90 43 63 58 135 210 179 376 37 141 34 262 -10 394 -19 55 -34 103
-34 106 0 3 24 2 53 -2 119 -16 222 -14 287 6 47 14 66 16 76 8 8 -6 11 -15 8
-21 -3 -5 -1 -14 4 -21 12 -15 42 -107 49 -150 10 -55 6 -109 -14 -192 -3 -16
-7 -42 -7 -57 -1 -16 -4 -28 -7 -28 -13 0 0 -91 18 -127 13 -28 26 -40 48 -44
17 -4 27 -7 23 -8 -12 -2 19 -91 39 -113 28 -31 86 -19 134 28 22 21 39 45 39
52 0 8 22 -9 48 -37 39 -42 57 -54 88 -58 31 -4 43 -1 57 15 20 22 51 111 39
113 -4 1 6 4 22 8 48 10 71 52 70 129 0 37 -3 80 -7 96 -35 156 -34 209 9 327
36 99 40 103 92 87 23 -7 42 -16 42 -20 0 -8 192 -3 269 7 50 6 53 6 47 -12
-30 -75 -56 -168 -63 -223 -7 -55 -2 -178 10 -230 11 -48 30 -109 43 -137 8
-17 14 -34 14 -38 0 -3 20 -49 45 -100 33 -68 58 -105 92 -134 25 -23 52 -42
59 -42 8 -1 20 -2 27 -3 23 -4 44 13 62 51 26 54 25 116 -2 203 -13 41 -26 82
-28 90 -2 8 -4 17 -5 20 -1 3 -2 8 -2 11 1 3 -6 28 -14 54 -8 27 -12 51 -8 54
3 3 26 -18 52 -46 58 -63 116 -103 151 -103 56 1 91 65 63 116 -9 18 -8 26 8
44 41 48 -19 110 -63 66 -12 -13 -23 -7 -79 44 -77 70 -109 128 -147 266 l-19
71 130 9 130 9 39 -82 c63 -132 113 -207 179 -269 29 -28 60 -31 61 -6 2 33
-3 67 -13 87 -17 32 -162 249 -172 256 -14 11 3 29 27 29 12 0 54 9 92 18 l70
18 63 -43 c80 -54 117 -57 136 -11 13 31 14 69 1 108 -4 13 7 25 45 49 28 17
54 31 58 31 5 0 28 -44 52 -97 42 -94 81 -164 107 -191 7 -7 28 -16 46 -19 29
-4 37 0 60 27 27 32 31 48 28 110 -3 53 -56 151 -101 185 -43 33 -44 34 -31
54 7 11 20 12 72 2 35 -6 80 -14 99 -16 19 -3 54 -15 77 -26 41 -20 56 -36
142 -145 59 -77 154 -114 212 -84 27 15 49 63 49 108 0 58 -50 149 -125 226
-36 37 -65 69 -65 71 0 2 12 2 26 -1 26 -5 61 -25 98 -56 12 -10 53 -43 91
-73 161 -126 295 -161 295 -77 0 19 5 20 103 16 90 -4 109 -2 157 18 69 29 87
59 65 111 -29 69 -94 108 -249 149 -112 29 -290 107 -313 136 -7 10 -33 49
-59 87 -56 85 -171 198 -299 296 -52 39 -95 75 -95 79 0 19 104 160 118 160
28 0 128 -113 212 -241 96 -145 112 -165 162 -190 47 -24 73 -24 98 1 26 26
25 57 -3 110 -22 43 -23 45 -5 78 16 33 16 37 0 64 -9 17 -44 53 -76 81 -33
29 -71 63 -85 76 -29 26 -117 72 -175 91 l-38 12 20 21 c19 18 24 19 49 8 15
-8 77 -31 137 -52 124 -44 172 -70 236 -128 45 -41 84 -55 130 -48 14 2 35 -4
49 -14 12 -10 39 -22 60 -25 22 -4 54 -23 83 -49 77 -69 130 -87 182 -63 53
23 43 75 -22 118 -45 30 -52 39 -52 67 0 35 -37 65 -145 120 -145 73 -244 105
-415 133 -95 15 -123 20 -132 26 -4 3 27 30 69 61 43 31 91 67 107 80 41 34
72 27 197 -46 169 -98 328 -140 527 -139 122 1 229 24 329 73 29 14 55 25 58
25 25 0 123 92 136 128 30 79 -54 170 -183 199 -42 9 -221 9 -270 0 -21 -4
-55 -10 -75 -13 -21 -3 -105 -21 -188 -40 -158 -37 -311 -68 -383 -79 -41 -6
-42 -5 -31 13 9 15 29 22 73 26 174 20 362 98 409 170 20 30 11 42 -43 61 -67
24 -160 17 -259 -17 -45 -16 -85 -28 -87 -25 -2 2 1 18 6 37 5 18 12 58 15 89
17 192 68 421 94 421 4 0 19 -29 35 -66 16 -36 46 -83 68 -105 39 -39 53 -46
62 -31 5 9 -40 142 -54 156 -12 12 -13 46 -2 46 22 0 68 -56 113 -140 63 -118
118 -200 137 -207 19 -8 32 16 26 50 -8 47 -61 149 -104 201 -22 26 -37 52
-35 57 9 13 104 -41 149 -86 23 -22 62 -72 87 -110 44 -67 92 -113 131 -128
28 -10 32 32 10 91 -20 52 -93 169 -132 210 -12 12 -20 27 -18 33 3 10 24 -9
85 -76 137 -151 184 -195 209 -195 8 0 14 9 14 20 0 24 -1 24 36 6 36 -18 81
-27 100 -19 34 13 3 90 -65 161 -18 18 -58 49 -89 69 -31 20 -82 57 -112 83
-30 25 -65 55 -77 65 -34 29 -28 37 21 30 58 -9 106 14 106 51 0 27 -32 80
-62 102 -14 10 -17 22 -13 50 4 28 0 43 -14 60 -27 32 -227 121 -300 133 l-61
11 0 94 0 94 63 -5 c99 -8 139 -16 193 -40 79 -35 108 -39 149 -19 26 12 42
14 58 7 12 -5 41 -9 65 -7 29 1 61 -6 97 -22 30 -14 78 -27 108 -29 46 -3 57
0 80 21 15 14 27 34 27 45 0 26 -35 56 -75 64 -55 12 -65 16 -65 29 0 31 -41
65 -93 76 -181 42 -354 45 -565 11 -29 -4 -54 -5 -56 -2 -2 3 -9 33 -16 66 -7
33 -15 65 -17 72 -13 34 208 0 255 -40 17 -13 86 -11 111 5 15 9 26 9 44 1 14
-7 39 -9 55 -7 19 3 51 -4 84 -18 74 -32 149 -32 177 1 25 29 25 30 6 59 -9
12 -39 28 -70 37 -33 10 -52 21 -50 28 8 22 -21 45 -75 61 -88 25 -228 39
-323 33 -83 -5 -89 -5 -112 19 -22 22 -58 30 -103 25 -6 -1 -17 10 -24 24 -6
14 -17 25 -24 25 -8 0 -22 31 -34 73 -12 39 -23 78 -25 85 -15 45 158 -32 325
-145 80 -54 168 -86 222 -81 27 2 34 8 36 30 2 20 -7 38 -39 73 -36 39 -39 45
-20 45 27 0 27 12 -1 36 -34 29 -179 93 -300 133 -21 7 -38 17 -38 23 0 6 8 7
18 3 9 -4 27 -9 39 -11 12 -2 34 -9 48 -14 67 -25 224 -31 251 -9 13 10 12 15
-3 32 -19 21 -95 59 -128 64 -57 8 -155 38 -190 59 -52 31 -121 91 -113 99 3
3 32 -3 65 -14 111 -38 264 -37 271 1 5 24 -64 45 -221 67 -127 19 -197 41
-197 64 0 4 42 7 93 5 128 -3 155 17 71 53 -51 23 -76 27 -182 28 l-73 1 3 38
3 37 105 5 c113 6 152 22 181 76 8 16 21 24 38 24 41 0 95 18 117 39 16 15 41
19 136 23 102 5 121 8 166 33 42 23 55 36 69 73 15 39 15 48 2 70 -21 38 -61
47 -147 33 l-74 -13 -27 32 c-20 24 -35 32 -66 34 -46 2 -216 -39 -343 -84
-139 -50 -126 -50 -119 5 4 26 7 103 7 171 l0 123 33 -4 c17 -3 68 -6 112 -9
97 -6 295 -71 444 -146 161 -80 257 -106 385 -103 99 3 132 46 84 109 -34 44
-43 52 -100 89 l-52 35 31 11 c45 15 48 34 9 57 -38 22 -134 57 -203 73 -27 6
-52 12 -58 13 -5 2 -28 6 -50 10 -22 4 -70 14 -107 22 -36 7 -83 17 -104 20
-57 9 -107 27 -111 41 -3 9 5 9 29 3 92 -24 355 -37 450 -22 250 39 157 155
-142 176 -233 17 -298 36 -454 132 -55 34 -58 38 -38 45 14 5 50 3 93 -6 89
-19 234 -19 322 0 142 30 179 89 71 116 -39 10 -349 12 -477 4 -56 -4 -77 0
-123 20 -78 35 -74 51 17 60 111 11 145 16 197 27 93 20 96 58 7 83 -30 9 -55
19 -55 23 1 4 15 16 33 27 35 22 47 64 25 83 -7 6 -47 20 -87 31 -41 11 -76
22 -78 24 -7 7 41 33 117 62 345 131 605 295 641 404 19 56 7 137 -25 170 -57
60 -172 64 -298 12 -109 -46 -352 -202 -483 -310 -27 -22 -53 -41 -56 -41 -4
0 -2 16 4 35 9 29 7 38 -7 54 -35 39 -117 -7 -211 -120 -177 -212 -391 -439
-414 -439 -17 0 -77 44 -114 85 -27 29 -77 116 -77 133 0 5 21 17 48 27 26 10
52 21 57 25 6 4 75 29 155 55 231 76 329 131 377 212 45 78 31 148 -36 171
-38 13 -136 5 -174 -14 -31 -16 -31 -16 -57 14 -60 73 -148 60 -275 -40 -27
-21 -77 -56 -110 -78 -33 -21 -87 -63 -119 -93 -59 -54 -59 -54 -87 -38 -27
15 -27 16 -12 46 16 31 83 136 93 145 3 3 24 31 48 62 58 78 114 132 181 175
103 65 141 117 141 195 0 37 5 47 36 72 41 32 74 82 74 111 0 14 23 35 73 67
143 94 201 166 201 252 0 32 -7 61 -18 79 -39 59 -104 44 -197 -44 -43 -41
-68 -58 -78 -53 -68 29 -109 13 -199 -79 -187 -193 -352 -448 -452 -701 -13
-33 -44 -100 -69 -149 l-46 -90 -90 -3 c-49 -1 -106 -7 -125 -13 -38 -12 -143
-15 -153 -5 -3 4 69 80 161 169 237 231 316 358 317 505 0 87 -19 125 -69 138
-52 14 -76 2 -158 -76 -51 -49 -79 -70 -82 -61 -6 15 -21 106 -31 179 -32 229
-105 381 -208 436 -50 27 -148 39 -178 23 -17 -9 -20 -19 -18 -66 2 -31 8 -77
15 -102 6 -25 15 -66 19 -91 l7 -45 -88 89 c-156 156 -263 216 -391 221 -69 2
-124 -17 -158 -55 -16 -17 -20 -36 -20 -89 0 -59 5 -77 38 -140 37 -71 117
-185 172 -246 49 -55 141 -179 178 -241 57 -94 138 -297 124 -310 -2 -3 -35 7
-73 20 -38 14 -95 32 -126 41 -32 9 -59 22 -59 28 -3 34 -9 80 -19 157 -6 47
-14 103 -16 125 -7 50 -35 115 -61 137 -10 10 -34 21 -51 24 -28 6 -37 2 -66
-29 l-33 -35 -17 38 c-27 62 -90 153 -148 215 -61 65 -63 65 -244 68 -75 1
-85 -1 -118 -26 -39 -30 -45 -56 -20 -81 19 -20 77 -20 164 -2 36 8 66 13 66
12 1 0 4 -23 7 -50 4 -27 9 -51 12 -54 2 -3 -21 -16 -53 -29 -80 -33 -124 -26
-197 34 -45 37 -55 51 -55 77 0 54 -11 62 -69 47 -37 -9 -55 -10 -71 -1 -11 6
-33 10 -48 8 -24 -3 -27 -8 -30 -45 -3 -38 -9 -48 -58 -87 -68 -56 -117 -66
-189 -37 -42 16 -50 23 -48 43 1 12 3 39 4 59 l3 35 65 -13 c91 -17 146 -16
165 3 25 25 19 51 -20 80 -32 25 -43 27 -117 26 -171 -1 -183 -4 -240 -67 -44
-48 -67 -75 -67 -79 0 -2 -17 -33 -39 -67 -21 -35 -41 -74 -45 -86 -7 -22 -8
-22 -42 13 -29 32 -38 36 -66 30 -67 -13 -102 -75 -117 -207 -20 -172 -24
-204 -27 -219 -1 -8 -3 -18 -3 -22 -1 -4 -27 -15 -58 -23 -32 -9 -89 -28 -126
-42 -38 -14 -70 -23 -73 -21 -8 8 46 161 83 233 49 97 112 190 213 314 47 58
100 126 117 151 28 42 76 128 78 140 0 3 4 11 8 18 5 7 11 37 14 66 5 45 2 61
-17 91 -63 102 -253 92 -407 -21 -21 -16 -80 -70 -132 -121 -52 -51 -96 -91
-98 -90 -1 2 2 19 7 38 11 41 19 82 26 129 20 136 3 154 -119 128z m1477 -632
l28 -24 -36 -12 c-28 -9 -44 -9 -72 0 l-36 12 28 24 c16 13 36 23 44 23 8 0
28 -10 44 -23z m31 -350 c17 -4 38 -9 47 -12 9 -3 25 -7 36 -9 49 -9 162 -47
167 -55 4 -6 -2 -13 -12 -16 -84 -30 -167 -67 -186 -84 l-22 -21 0 -2387 c0
-1346 -4 -2393 -9 -2401 -6 -10 -5 -12 3 -7 8 5 8 0 -1 -19 -8 -17 -9 -32 -2
-43 5 -9 9 -74 9 -144 0 -71 4 -128 9 -128 4 0 5 -41 2 -93 -4 -50 -9 -339
-10 -642 -3 -536 -2 -551 17 -585 11 -19 38 -50 59 -69 l38 -34 -60 -35 c-32
-19 -82 -54 -111 -78 l-53 -43 -30 30 c-27 26 -97 76 -162 115 -18 11 -16 15
24 51 23 22 42 45 42 50 0 6 6 16 14 22 11 9 13 108 10 574 -1 309 -3 600 -4
647 -2 142 9 350 19 369 7 12 6 22 -1 29 -14 14 -17 302 -3 302 7 0 7 3 0 8
-12 9 -14 1552 -2 1552 5 0 5 5 1 11 -4 7 -6 136 -5 288 1 152 2 281 2 286 -2
34 -2 482 -1 490 1 6 1 15 0 20 -1 6 -2 428 -3 940 l0 929 -22 18 c-12 10 -51
29 -86 44 -35 14 -77 32 -94 39 l-30 13 30 12 c44 17 186 57 224 63 18 3 35 8
38 10 6 6 79 2 118 -7z"/>
<path d="M5366 1843 c-6 -14 -5 -15 5 -6 7 7 10 15 7 18 -3 3 -9 -2 -12 -12z"/>
<path d="M5481 1844 c0 -11 3 -14 6 -6 3 7 2 16 -1 19 -3 4 -6 -2 -5 -13z"/>
<path d="M3194 9245 c-19 -20 -34 -39 -35 -43 0 -4 -3 -16 -6 -27 -28 -110 39
-303 131 -376 23 -18 30 -20 41 -8 20 21 31 101 29 209 -4 159 -16 222 -54
260 -30 30 -66 25 -106 -15z"/>
<path d="M7592 9273 c-7 -3 -19 -18 -28 -35 -46 -88 -48 -426 -3 -453 15 -10
76 41 105 87 57 90 86 225 64 301 -22 80 -81 123 -138 100z"/>
<path d="M2516 8879 c-34 -27 -33 -44 6 -80 43 -39 65 -45 89 -23 27 24 24 56
-8 86 -40 36 -58 40 -87 17z"/>
<path d="M8291 8864 c-34 -28 -40 -64 -15 -85 28 -23 50 -19 87 15 75 69 6
136 -72 70z"/>
<path d="M1843 8659 c-85 -94 44 -178 312 -203 33 -3 71 -9 85 -12 14 -3 35
-8 48 -11 36 -9 27 25 -20 72 -85 84 -244 163 -348 172 -49 4 -58 2 -77 -18z"/>
<path d="M2363 8673 c-17 -6 -16 -48 1 -81 19 -36 97 -113 137 -134 60 -32 64
-6 13 98 -49 101 -98 139 -151 117z"/>
<path d="M8437 8646 c-18 -18 -48 -63 -65 -99 -47 -96 -42 -118 18 -89 45 22
129 108 147 149 30 73 -40 100 -100 39z"/>
<path d="M8900 8661 c-118 -38 -242 -114 -299 -183 -31 -39 -18 -53 36 -39 22
6 63 13 92 16 156 15 271 47 326 90 27 22 28 98 1 118 -27 20 -93 19 -156 -2z"/>
<path d="M9530 7972 c-41 -13 -64 -78 -36 -101 35 -29 82 -10 98 39 11 32 -30
73 -62 62z"/>
<path d="M1323 7958 c-18 -29 -13 -60 12 -84 31 -28 34 -29 62 -9 29 20 32 55
9 83 -21 24 -70 30 -83 10z"/>
<path d="M1642 7774 c-17 -12 -21 -21 -16 -42 18 -75 164 -206 196 -174 17 17
-62 174 -106 207 -39 29 -44 30 -74 9z"/>
<path d="M9168 7749 c-42 -44 -102 -163 -94 -185 12 -32 66 -3 138 75 63 68
77 104 52 132 -26 29 -53 23 -96 -22z"/>
<path d="M1418 7698 c-43 -35 -17 -107 58 -159 52 -36 124 -63 136 -51 14 14
-59 147 -102 186 -42 38 -66 44 -92 24z"/>
<path d="M9385 7666 c-41 -42 -108 -162 -99 -178 13 -20 118 28 171 78 50 47
62 84 39 119 -25 38 -60 32 -111 -19z"/>
<path d="M1171 7414 c-33 -24 -27 -64 15 -98 31 -24 41 -27 63 -20 14 5 26 15
26 21 0 6 3 15 7 18 10 10 -10 47 -36 65 -35 26 -53 29 -75 14z"/>
<path d="M9671 7409 c-42 -25 -57 -64 -36 -95 21 -32 47 -30 90 7 37 33 43 53
22 80 -20 26 -43 28 -76 8z"/>
<path d="M1079 6844 c-168 -34 -309 -118 -309 -185 0 -18 10 -36 30 -52 51
-43 125 -20 265 83 39 28 97 69 129 91 66 44 79 68 38 70 -15 0 -43 2 -63 3
-20 1 -60 -3 -90 -10z"/>
<path d="M9695 6852 c-60 -5 -62 -16 -8 -53 26 -18 82 -57 123 -88 102 -76
210 -130 252 -125 41 5 78 40 78 73 0 80 -189 175 -385 194 -11 2 -38 1 -60
-1z"/>
<path d="M1601 6126 c-9 -11 -9 -19 1 -35 26 -42 72 -15 48 28 -13 24 -33 27
-49 7z"/>
<path d="M9250 6125 c-16 -19 -3 -55 19 -55 21 0 38 19 35 38 -1 6 -2 17 -3
22 -2 15 -37 12 -51 -5z"/>
<path d="M1813 6053 c-37 -13 16 -88 80 -114 47 -20 50 2 9 55 -37 49 -65 67
-89 59z"/>
<path d="M9053 6049 c-20 -7 -93 -93 -93 -110 0 -23 63 4 108 45 48 45 39 85
-15 65z"/>
<path d="M1680 5975 c-20 -24 1 -57 52 -83 85 -42 103 -21 41 46 -44 47 -74
59 -93 37z"/>
<path d="M9175 5981 c-22 -10 -67 -57 -84 -90 -10 -19 -9 -21 11 -21 42 1 112
43 123 73 7 22 6 30 -5 37 -18 11 -19 11 -45 1z"/>
<path d="M1557 5783 c-24 -24 23 -73 57 -60 19 7 21 38 4 55 -13 13 -50 16
-61 5z"/>
<path d="M9288 5779 c-22 -12 -23 -48 -2 -56 25 -9 64 17 64 44 0 17 -6 23
-22 23 -13 0 -31 -5 -40 -11z"/>
<path d="M1596 5449 c-87 -21 -206 -104 -206 -144 0 -40 58 -52 105 -21 32 21
165 155 165 166 0 12 -10 11 -64 -1z"/>
<path d="M9238 5454 c-6 -6 132 -143 168 -168 49 -33 104 -24 104 17 0 44
-103 118 -197 142 -64 17 -67 17 -75 9z"/>
<path d="M1366 5171 c-12 -20 6 -42 33 -39 37 4 37 42 -1 46 -14 2 -29 -1 -32
-7z"/>
<path d="M9476 5171 c-12 -20 6 -42 33 -39 37 4 37 42 -1 46 -14 2 -29 -1 -32
-7z"/>
<path d="M1285 5092 c-50 -8 -63 -13 -69 -28 -8 -21 11 -44 36 -44 26 0 120
49 113 59 -6 10 -52 18 -80 13z"/>
<path d="M9582 5092 c-55 -4 -51 -19 11 -51 52 -26 92 -23 100 8 7 30 -39 48
-111 43z"/>
<path d="M1221 4892 c-19 -35 33 -58 59 -27 10 12 10 18 0 30 -17 21 -47 19
-59 -3z"/>
<path d="M9624 4895 c-11 -27 4 -47 33 -43 49 5 40 57 -10 58 -10 0 -20 -7
-23 -15z"/>
<path d="M1073 4798 c-47 -23 -16 -75 37 -65 39 8 112 55 105 67 -8 13 -114
11 -142 -2z"/>
<path d="M9690 4802 c0 -28 99 -77 135 -68 34 9 41 37 15 58 -16 13 -40 18
-86 18 -35 0 -64 -4 -64 -8z"/>
<path d="M1468 4641 c-27 -22 -18 -51 16 -51 29 0 57 25 50 44 -9 22 -42 26
-66 7z"/>
<path d="M9375 4640 c-15 -16 -15 -19 1 -34 23 -24 68 -17 72 10 5 32 -50 50
-73 24z"/>
<path d="M1434 4351 c-56 -24 -33 -66 31 -57 64 10 105 26 105 42 0 8 -3 14
-7 14 -5 0 -30 3 -58 5 -27 3 -60 1 -71 -4z"/>
<path d="M9347 4353 c-54 -13 63 -69 120 -58 34 6 40 18 23 45 -9 15 -101 23
-143 13z"/>
<path d="M1427 4200 c-82 -31 -173 -106 -182 -148 -5 -27 19 -52 49 -52 25 0
92 59 141 125 17 21 38 47 48 57 36 38 15 45 -56 18z"/>
<path d="M9406 4211 c-3 -4 4 -19 15 -32 12 -13 35 -41 52 -63 83 -101 142
-137 175 -104 22 22 12 55 -28 95 -60 60 -199 128 -214 104z"/>
<path d="M1967 2776 c-19 -14 -14 -41 8 -50 8 -3 24 3 36 13 20 16 20 18 4 34
-20 20 -25 21 -48 3z"/>
<path d="M8883 2775 c-17 -13 -17 -15 2 -33 26 -26 66 -14 58 16 -6 26 -37 34
-60 17z"/>
<path d="M1911 2659 c-66 -23 -81 -35 -81 -64 0 -34 33 -37 78 -8 40 26 79 78
65 86 -5 2 -32 -4 -62 -14z"/>
<path d="M8920 2660 c0 -16 75 -86 98 -92 12 -3 29 0 39 7 15 11 16 16 4 39
-19 35 -141 76 -141 46z"/>
<path d="M2270 2602 c-26 -21 -18 -52 13 -52 32 0 58 29 46 51 -12 24 -31 24
-59 1z"/>
<path d="M8567 2613 c-15 -14 -6 -41 17 -57 23 -14 26 -14 40 0 20 20 20 27
-2 47 -19 18 -44 22 -55 10z"/>
<path d="M2443 2510 c-47 -11 -83 -37 -83 -60 0 -40 90 -14 142 40 28 29 7 36
-59 20z"/>
<path d="M8380 2511 c0 -27 110 -94 136 -84 31 12 19 49 -22 71 -31 17 -114
26 -114 13z"/>
<path d="M2440 2353 c-47 -31 -73 -58 -111 -117 -47 -71 -51 -111 -14 -128 22
-10 29 -8 55 17 17 16 35 44 42 62 7 18 16 33 22 33 5 0 6 3 3 7 -4 3 -2 11 3
18 5 6 11 20 13 31 2 10 11 33 20 51 9 18 17 34 17 38 0 10 -25 4 -50 -12z"/>
<path d="M8400 2361 c0 -6 4 -12 8 -15 5 -3 24 -44 42 -92 34 -86 83 -154 112
-154 8 0 22 8 31 18 25 27 6 80 -53 151 -61 73 -140 125 -140 92z"/>
<path d="M2675 1669 c-105 -73 -173 -131 -200 -173 -19 -28 -19 -29 4 -47 29
-23 27 -24 76 4 41 23 209 233 199 249 -8 13 -16 10 -79 -33z"/>
<path d="M8130 1702 c0 -13 140 -196 173 -226 46 -41 75 -50 103 -31 29 18 29
22 6 57 -18 27 -44 52 -95 91 -16 12 -34 27 -40 32 -7 6 -37 28 -68 48 -54 36
-79 45 -79 29z"/>
<path d="M3166 1519 c-15 -17 -34 -45 -43 -63 -8 -17 -21 -38 -28 -46 -8 -8
-14 -19 -14 -25 0 -5 -7 -26 -15 -45 -33 -81 -36 -92 -37 -149 -1 -55 25 -93
74 -105 43 -11 61 1 82 51 21 51 27 105 29 256 2 157 -6 177 -48 126z"/>
<path d="M7675 1540 c-3 -5 -5 -77 -4 -160 1 -199 23 -283 76 -296 35 -9 88
20 104 57 26 64 -19 207 -108 342 -44 66 -56 76 -68 57z"/>
<path d="M2990 1530 c-8 -4 -34 -16 -57 -25 -65 -27 -99 -72 -81 -107 17 -34
59 -22 109 32 68 72 85 132 29 100z"/>
<path d="M7860 1528 c0 -8 17 -37 38 -65 59 -82 118 -106 140 -58 10 22 8 28
-21 57 -18 18 -57 42 -87 53 -30 11 -58 22 -62 23 -4 2 -8 -3 -8 -10z"/>
<path d="M3573 1482 c-7 -4 -9 -13 -5 -19 4 -7 13 -9 19 -5 7 4 9 13 5 19 -4
7 -13 9 -19 5z"/>
<path d="M7294 1477 c-8 -21 2 -35 16 -21 5 5 6 15 0 24 -8 12 -10 12 -16 -3z"/>
<path d="M2680 1285 c0 -8 7 -15 15 -15 8 0 15 7 15 15 0 8 -7 15 -15 15 -8 0
-15 -7 -15 -15z"/>
<path d="M8180 1285 c0 -8 7 -15 15 -15 8 0 15 7 15 15 0 8 -7 15 -15 15 -8 0
-15 -7 -15 -15z"/>
<path d="M2874 1272 c-35 -28 -49 -62 -32 -79 18 -17 45 -8 53 18 4 10 11 19
16 19 5 0 9 14 9 30 0 34 -15 38 -46 12z"/>
<path d="M7960 1285 c0 -26 37 -88 58 -96 47 -18 50 30 5 76 -22 21 -63 35
-63 20z"/>
<path d="M3474 1169 c-10 -17 13 -36 27 -22 12 12 4 33 -11 33 -5 0 -12 -5
-16 -11z"/>
<path d="M4783 1173 c-19 -7 -16 -35 10 -73 40 -61 116 -227 117 -255 0 -3 0
-6 1 -7 5 -18 11 -49 14 -73 5 -49 23 -173 30 -210 16 -83 38 -130 70 -151 26
-17 29 -17 70 5 40 21 64 52 72 96 8 40 9 121 1 143 -4 12 -10 33 -12 47 -8
41 -106 219 -135 245 -4 3 -20 23 -36 45 -46 62 -66 85 -123 142 -55 54 -57
55 -79 46z"/>
<path d="M6031 1153 c-73 -57 -259 -304 -304 -404 -45 -98 -49 -241 -8 -297
27 -39 75 -65 102 -57 56 18 80 82 109 287 23 163 44 230 115 365 30 57 52
109 49 116 -7 20 -29 17 -63 -10z"/>
<path d="M7374 1169 c-8 -14 11 -33 25 -25 6 4 11 11 11 16 0 13 -29 20 -36 9z"/>
<path d="M3262 958 c-8 -8 -9 -15 -1 -25 18 -21 39 -15 39 12 0 27 -18 33 -38
13z"/>
<path d="M7584 955 c-7 -18 3 -35 21 -35 15 0 24 19 18 38 -6 17 -32 15 -39
-3z"/>
</g>
</svg>
